<svg width="324" height="66" viewBox="0 0 324 66" fill="none" xmlns="http://www.w3.org/2000/svg">
<g clip-path="url(#clip0_638_6677)">
<path d="M46.6805 0H19.0369C8.5415 0 0 8.57944 0 19.1215V46.8878C0 57.4299 8.5415 66.0093 19.0369 66.0093H46.6805C57.1759 66.0093 65.7174 57.4299 65.7174 46.8878V19.1215C65.7174 8.57944 57.1759 0 46.6805 0ZM61.5118 46.8878C61.5118 50.8505 59.9673 54.5888 57.148 57.4112C54.3381 60.2336 50.6163 61.7944 46.6712 61.7944H19.0276C15.0825 61.7944 11.3607 60.243 8.5508 57.4112C5.74085 54.5888 4.18701 50.8505 4.18701 46.8878V19.1215C4.18701 15.1589 5.73155 11.4206 8.5508 8.59813C11.3607 5.7757 15.0825 4.21495 19.0276 4.21495H46.6712C50.6163 4.21495 54.3381 5.76635 57.148 8.59813C59.958 11.4206 61.5118 15.1589 61.5118 19.1215V46.8878Z" fill="#91C7C4"/>
<path d="M33.6449 49.5234H32.0074C30.5223 49.5234 29.3184 50.7327 29.3184 52.2244V53.8692C29.3184 55.3609 30.5223 56.5702 32.0074 56.5702H33.6449C35.13 56.5702 36.3339 55.3609 36.3339 53.8692V52.2244C36.3339 50.7327 35.13 49.5234 33.6449 49.5234Z" fill="#00A39B"/>
<path d="M31.5608 12.4581C34.3522 12.4581 36.5015 12.5422 38.2787 12.6544C38.0088 10.0562 36.8179 8.04688 35.2826 8.04688H30.3513C28.8067 8.04688 27.6157 10.0749 27.3552 12.6917C28.5183 12.5329 29.8488 12.4581 31.4213 12.4487C31.4678 12.4487 31.5143 12.4487 31.5608 12.4487V12.4581Z" fill="#00A39B"/>
<path d="M36.5945 40.645L36.3433 43.7478C37.3202 43.9721 38.2042 44.159 38.902 44.2992C39.8138 44.4768 40.7071 43.9534 40.8838 43.131L40.9024 43.0375C41.0699 42.2525 40.5117 41.4861 39.637 41.3179C38.8276 41.159 37.7668 40.9347 36.6038 40.6544C36.6038 40.6544 36.6038 40.6544 36.5945 40.6544V40.645Z" fill="#EEB569"/>
<path d="M37.6925 23.7383L37.4599 26.8692C37.9624 27.0094 38.4276 27.1776 38.837 27.3552C40.3071 28.0187 40.4932 28.6823 40.4746 29.2991C40.4746 29.5701 40.4467 30.0841 39.0603 30.5141C38.4927 30.6916 37.8414 30.8038 37.1622 30.8879C36.7621 30.9346 36.362 30.972 35.9619 31.0094C35.5618 31.0374 35.1803 31.0655 34.8175 31.0935C34.101 31.1402 33.4776 31.1776 32.9473 31.2617C32.6309 31.3084 32.3425 31.3645 32.0912 31.4486C32.0261 31.4673 31.9517 31.486 31.8772 31.5047C31.8028 31.5234 31.7098 31.5421 31.6074 31.5701C31.5609 31.5795 31.5144 31.5888 31.4585 31.5982C31.3097 31.6262 31.1422 31.6636 30.9747 31.6916C30.8817 31.7103 30.7886 31.729 30.6956 31.7477C30.221 31.8412 29.7093 31.9533 29.1789 32.0935C28.9649 32.1496 28.7602 32.215 28.5462 32.2804C28.0531 32.4393 27.56 32.6355 27.0854 32.8879C25.392 33.7944 24.3965 35.1869 24.229 36.9346C24.0894 38.3552 25.1036 39.6542 27.2622 40.7757C27.8298 41.0748 28.4904 41.3645 29.2348 41.6542L29.1231 40.3926C29.0859 39.8598 28.9742 39.0748 28.8998 38.0841C28.8998 38.0841 28.844 38.0561 28.8161 38.0374C27.8205 37.4954 27.8112 36.0468 28.8068 35.5141C28.8068 35.5141 28.8254 35.5141 28.8254 35.5047C29.6442 35.0655 30.7421 34.8505 31.7191 34.6542C32.268 34.5421 32.7891 34.4393 33.2264 34.2991C33.4776 34.2243 34.3987 34.1589 35.0687 34.1215C36.6132 34.0187 38.5299 33.8972 40.1768 33.3832C43.1729 32.458 43.8521 30.6916 43.8893 29.3645C43.9637 26.7757 42.0191 25.3458 40.3629 24.6075C39.5534 24.243 38.6416 23.9626 37.7204 23.729C37.7204 23.729 37.7018 23.729 37.6925 23.729V23.7383Z" fill="#EEB569"/>
<path d="M46.5689 15.9907C45.7222 15.5795 45.0616 15.1963 44.9127 14.9814C44.0009 14.1683 43.6194 13.458 40.5676 12.8318C39.8697 12.7664 39.1254 12.701 38.2973 12.6543C36.5201 12.5421 34.3708 12.458 31.5794 12.458C31.5329 12.458 31.4864 12.458 31.4399 12.458C29.8767 12.458 28.5369 12.5421 27.3738 12.701C26.3969 12.8318 25.5502 13.0188 24.7965 13.2617C21.1957 14.43 20.656 16.7664 20.656 18.0655C20.656 20.43 21.9865 22.2898 24.6011 23.5888C25.6711 24.1216 26.8807 24.5141 28.0717 24.8318L27.8297 21.5421C27.8297 21.5421 27.8204 21.5421 27.8111 21.5421C27.2622 21.3552 26.7318 21.1496 26.2573 20.916C24.3127 19.9533 24.0707 18.8786 24.0707 18.0655C24.0707 17.3832 24.0707 15.5515 31.4678 15.5234C31.505 15.5234 31.5515 15.5234 31.5887 15.5234C35.3664 15.5234 39.0788 18.3459 43.8799 18.8412C45.6385 19.0281 47.2854 18.5795 47.3598 17.8131C47.4994 16.3926 46.5875 16.0001 46.5875 16.0001L46.5689 15.9907ZM42.3912 16.6169C41.8609 16.6169 41.4236 16.1776 41.4236 15.6449C41.4236 15.1122 41.8609 14.673 42.3912 14.673C42.9216 14.673 43.3589 15.1122 43.3589 15.6449C43.3589 16.1776 42.9216 16.6169 42.3912 16.6169Z" fill="#EEB569"/>
<path d="M27.8017 21.5423L28.0436 24.832L28.36 29.047C28.36 29.1404 28.3879 29.2432 28.4251 29.3273L28.5461 32.2806C28.7601 32.2152 28.9741 32.1498 29.1788 32.0937C29.7091 31.9535 30.2209 31.8414 30.6954 31.7479C30.7884 31.7292 30.8815 31.7105 30.9745 31.6918C31.142 31.6544 31.3095 31.6264 31.4584 31.5984C31.5049 31.589 31.5607 31.5797 31.6072 31.5703C31.7003 31.5516 31.7933 31.5329 31.8771 31.5049C31.9608 31.4769 32.0352 31.4675 32.0911 31.4488C32.3423 31.3741 32.6214 31.3086 32.9471 31.2619C33.4774 31.1872 34.1008 31.1404 34.8173 31.0937C35.1802 31.0657 35.5709 31.047 35.9617 31.0096C36.3618 30.9815 36.7619 30.9348 37.162 30.8881L37.2271 29.346C37.2643 29.2526 37.2923 29.1498 37.3016 29.047L37.4597 26.8694L37.6924 23.7386C37.6924 23.7386 37.711 23.7386 37.7203 23.7386L37.925 20.6171L37.9808 19.8507C37.9808 19.8507 37.9808 19.7572 37.9808 19.7105V19.6918C38.0366 18.8787 37.4504 18.1685 36.641 18.075C34.7987 17.8601 32.854 17.7012 31.1699 17.7012C31.1327 17.7012 31.0862 17.7012 31.049 17.7012C30.3139 17.7012 29.6626 17.7292 29.0671 17.7666C28.2297 17.8227 27.597 18.5516 27.6528 19.3928L27.6808 19.8414V19.8787L27.7924 21.5143C27.7924 21.5143 27.8017 21.5143 27.811 21.5143L27.8017 21.5423Z" fill="#00A39B"/>
<path d="M29.2346 41.6638L29.5603 45.2713C29.5603 45.346 29.5789 45.4208 29.5975 45.4956C29.7371 46.3834 30.5652 47.0563 31.5049 47.0563H34.1381C34.2963 47.0563 34.4451 47.0376 34.594 47.0003C35.0499 46.9255 35.5617 46.6825 35.9432 45.9535C36.1293 45.5984 36.2316 45.1965 36.2595 44.7946L36.3433 43.7386L36.5945 40.6358C36.5945 40.6358 36.5945 40.6358 36.6038 40.6358L36.6596 39.7573L36.8178 37.3647C36.855 36.7292 36.2688 36.2059 35.571 36.2619C35.2453 36.29 34.9197 36.3087 34.6219 36.3274C33.9613 36.3741 33.0495 36.4302 32.7983 36.5049C32.3609 36.6451 31.8492 36.7479 31.3095 36.8601C30.7885 36.9629 30.2209 37.0844 29.6906 37.2339C29.2626 37.3554 28.9555 37.6918 28.8904 38.0844C28.9648 39.075 29.0765 39.8507 29.1137 40.3928L29.2253 41.6545L29.2346 41.6638Z" fill="#00A39B"/>
<path d="M84.0378 47.28V19.6351C84.0378 16.6912 85.6754 14.9902 88.383 14.9902H99.1018C108.574 14.9902 113.421 18.9529 113.421 26.4295C113.421 31.7005 110.77 35.3828 105.699 36.794C105.131 36.9622 104.517 37.0743 103.894 37.1304L113.477 48.8033C113.812 49.1958 112.24 51.8594 108.685 51.8594C106.257 51.8594 104.964 50.8407 103.214 48.4575L95.2032 38.4295H92.3281V48.0557C92.3281 50.4388 91.0906 51.85 88.6622 51.85H87.5363C85.2846 51.85 84.0378 50.2052 84.0378 47.2613V47.28ZM105.122 26.9996C105.122 23.3734 102.87 21.5043 98.3574 21.5043H92.2072V32.4949H98.5249C102.982 32.4949 105.122 30.4014 105.122 26.9996Z" fill="#00A39B"/>
<path d="M130.104 23.3735C138.283 23.3735 143.81 29.0932 143.81 37.196V37.71C143.754 39.0651 143.354 39.8034 141.893 39.8034H122.828L122.996 40.71C123.842 44.3362 126.829 46.6539 130.886 46.6539C134.942 46.6539 137.371 44.8408 138.608 42.6352C138.664 42.5231 142.498 42.8595 142.498 46.0371C142.498 47.5698 141.428 49.1492 139.455 50.3455C137.427 51.5885 134.496 52.439 130.653 52.439C121.684 52.439 115.822 46.8315 115.822 38.0558C115.822 29.2801 121.795 23.3829 130.086 23.3829L130.104 23.3735ZM130.048 28.8689C126.271 28.8689 123.451 31.5885 122.94 35.439H136.478C136.254 31.4203 133.826 28.8689 130.048 28.8689Z" fill="#00A39B"/>
<path d="M161.181 30.0557C158.929 30.0557 156.892 31.4763 155.766 33.4576V48.0744C155.766 50.9622 154.296 51.8688 152.267 51.8688H151.421C149.281 51.8688 147.811 51.0183 147.811 48.0744V24.6258C147.811 24.3454 149.225 23.7193 150.797 23.7193C152.77 23.7193 154.91 24.5697 155.533 28.252C157.394 25.4763 160.046 23.3828 164.047 23.3828C168.615 23.3828 171.49 25.5884 172.849 29.0464C174.71 25.8781 177.529 23.3828 182.097 23.3828C189.094 23.3828 192.025 27.8594 192.025 34.3735V48.0837C192.025 50.9716 190.555 51.8781 188.527 51.8781H187.68C185.54 51.8781 184.07 51.0277 184.07 48.0837V35.6258C184.07 31.9996 182.488 30.0744 179.278 30.0744C177.027 30.0744 174.989 31.495 173.863 33.4763V48.0931C173.863 50.9809 172.393 51.8875 170.365 51.8875H169.518C167.434 51.8875 165.908 51.037 165.908 48.0931V35.8034C165.908 32.009 164.326 30.0837 161.172 30.0837L161.181 30.0557Z" fill="#00A39B"/>
<path d="M210.299 23.3735C218.478 23.3735 224.005 29.0932 224.005 37.196V37.71C223.949 39.0651 223.549 39.8034 222.088 39.8034H203.023L203.191 40.71C204.038 44.3362 207.024 46.6539 211.081 46.6539C215.138 46.6539 217.566 44.8408 218.804 42.6352C218.86 42.5231 222.693 42.8595 222.693 46.0371C222.693 47.5698 221.623 49.1492 219.65 50.3455C217.622 51.5885 214.691 52.439 210.848 52.439C201.879 52.439 196.017 46.8315 196.017 38.0558C196.017 29.2801 201.991 23.3829 210.281 23.3829L210.299 23.3735ZM210.244 28.8689C206.466 28.8689 203.647 31.5885 203.135 35.439H216.673C216.45 31.4203 214.021 28.8689 210.244 28.8689Z" fill="#00A39B"/>
<path d="M227.047 37.8785C227.047 29.1028 232.239 23.3738 239.85 23.3738C243.795 23.3738 246.959 25.1869 248.531 27.5607V13.1775C248.531 12.9532 249.936 12.271 251.518 12.271C253.891 12.271 256.477 13.514 256.477 18.6729V48.0747C256.477 50.9626 255.072 51.8691 252.979 51.8691H252.188C250.383 51.8691 249.034 51.243 248.745 49.0934C248.69 48.4673 248.634 47.8504 248.634 47.1682C246.773 50.4018 243.73 52.4392 239.664 52.4392C232.221 52.4392 227.029 46.5514 227.029 37.8785H227.047ZM241.767 29.7757C237.478 29.7757 234.603 32.8878 234.603 37.8785C234.603 42.8691 237.534 46.0373 241.655 46.0373C245.433 46.0373 248.597 43.3738 248.597 39.4112V34.1962C247.415 31.4766 245.154 29.7757 241.776 29.7757H241.767Z" fill="#00A39B"/>
<path d="M266.638 11.3643C269.401 11.3643 271.095 12.953 271.095 15.4951C271.095 18.0372 269.457 19.6259 266.638 19.6259C263.819 19.6259 262.181 18.0372 262.181 15.4951C262.181 12.953 263.875 11.3643 266.638 11.3643ZM266.191 23.7194H267.038C269.122 23.7194 270.592 24.6259 270.592 27.5699V48.0745C270.592 50.9624 269.122 51.8689 267.038 51.8689H266.247C264.107 51.8689 262.637 51.0185 262.637 48.0745V27.5699C262.637 24.682 264.163 23.7194 266.191 23.7194Z" fill="#EEB569"/>
<path d="M279.552 30.2336H277.357C275.049 30.2336 274.026 29.2149 274.026 27.2896V26.785C274.026 24.9719 275.04 24.0093 277.357 24.0093H279.608V22.5326C279.608 14.8878 283.386 11.9438 289.08 11.9438C291.676 11.9438 293.481 12.57 294.607 13.4205C295.621 14.2149 296.077 15.2336 296.077 16.3083C296.077 18.2336 294.495 19.7102 294.384 19.542C293.593 18.8037 292.188 18.0653 290.606 18.0653C288.289 18.0653 287.219 19.3644 287.219 22.542V24.0186H290.774C293.09 24.0186 294.105 25.0373 294.105 26.9625V27.4111C294.105 29.2803 293.09 30.2429 290.774 30.2429H287.498V48.084C287.498 51.028 286.094 51.8784 284 51.8784H283.153C281.125 51.8784 279.543 50.9719 279.543 48.084V30.2429L279.552 30.2336Z" fill="#00A39B"/>
<path d="M302.73 60.308L307.242 49.8875C306.005 49.6632 305.158 49.2613 304.702 48.0744L295.23 26.037C295.063 25.579 297.147 23.7099 299.576 23.6538C301.492 23.6538 303.074 24.6164 304.088 27.6725L309.95 43.5323L315.254 27.7286C316.212 24.6164 317.905 23.6538 319.71 23.6538C321.906 23.6538 324.167 25.523 324 25.9155L311.485 58.5977C310.304 61.5977 308.722 62.5043 306.973 62.5043C304.665 62.5043 302.572 60.6912 302.748 60.2987L302.73 60.308Z" fill="#00A39B"/>
</g>
<defs>
<clipPath id="clip0_638_6677">
<rect width="324" height="66" fill="white"/>
</clipPath>
</defs>
</svg>
