<svg width="244" height="279" viewBox="0 0 244 279" fill="none" xmlns="http://www.w3.org/2000/svg">
<g clip-path="url(#clip0_638_6701)">
<path d="M158.926 32.886C147.543 29.7678 151.831 22.7536 150.818 16.463C149.805 10.1724 141.674 9.91602 141.674 9.91602C133.576 12.7337 136.888 11.5001 127.012 15.4274C119.031 23.6111 113.942 61.9599 140.528 61.7249C167.113 61.4913 170.31 36.0042 158.927 32.886H158.926Z" fill="#292C56"/>
<path d="M203.124 73.2008L212.677 69.5484C212.677 69.5484 216.995 67.3048 221.973 67.3661C226.952 67.4273 229.498 66.5555 235.964 63.2992C242.43 60.0428 244.108 62.1368 241.484 65.698C238.859 69.2592 232.278 76.0811 229.053 77.0655C225.827 78.0498 221.926 78.3831 221.926 78.3831L210.559 88.7962L203.125 73.2008H203.124Z" fill="white"/>
<path d="M210.043 89.0425L202.608 73.4457C202.465 73.1451 202.608 72.7876 202.919 72.6679L212.442 69.0269C212.871 68.809 217.065 66.7349 221.979 66.7962C226.919 66.8503 229.337 65.997 235.706 62.7905C239.359 60.95 241.826 60.6096 242.835 61.8047C243.601 62.7121 243.283 64.215 241.941 66.0369C239.459 69.4044 232.718 76.544 229.219 77.6109C226.346 78.487 223.01 78.8516 222.168 78.9328L210.942 89.2163C210.658 89.4755 210.207 89.3858 210.043 89.0411V89.0425ZM203.903 73.5126L210.741 87.8573L221.54 77.9642C221.633 77.8787 221.751 77.8274 221.876 77.816C221.915 77.8132 225.758 77.4756 228.885 76.5212C231.813 75.628 238.168 69.2349 241.024 65.3603C242.094 63.9087 242.267 62.8973 241.964 62.5398C241.606 62.1181 239.995 61.9073 236.219 63.809C229.756 67.064 227.101 68.0056 221.965 67.9372C217.189 67.8845 212.979 70.0326 212.938 70.0554L203.902 73.5141L203.903 73.5126Z" fill="#292C56"/>
<path d="M64.046 43.0752C64.046 43.0752 60.6306 32.7305 58.4421 30.0454C56.2535 27.3588 44.6067 33.4827 39.8776 34.1422C35.177 34.7975 31.2643 28.9514 29.5445 32.0938C28.5272 33.9513 30.901 36.9271 32.6977 39.1792C34.9974 42.0624 37.0022 44.5752 39.7037 44.494C40.5644 44.4684 46.3008 42.1593 47.1472 41.806C47.5604 45.7461 47.9751 49.6849 48.3883 53.625L64.0475 43.0766L64.046 43.0752Z" fill="white"/>
<path d="M48.3869 54.1934C48.0948 54.1934 47.8511 53.9726 47.8198 53.6834L46.6585 42.6237C45.805 42.9727 40.6399 45.0368 39.7195 45.0638C36.7415 45.1464 34.6569 42.5496 32.2518 39.5354C30.2883 37.0738 27.8461 34.0112 29.0444 31.8217C29.365 31.2377 29.8466 30.8744 30.1615 30.7434C31.3185 30.2591 32.6393 30.9998 34.1696 31.8573C38.7648 34.43 39.4217 34.0767 46.5958 31.4827C52.0573 29.5083 57.2153 27.6423 58.8838 29.6893C61.1137 32.4257 64.4465 42.4741 64.5875 42.9C64.6673 43.1422 64.5761 43.4086 64.3653 43.551C48.5379 54.2119 48.659 54.1963 48.3869 54.1963V54.1934ZM47.1458 41.2348C47.4379 41.2348 47.6816 41.4556 47.7129 41.7448L48.8557 52.6208L63.3693 42.8445C62.7124 40.91 59.8584 32.6821 58.0018 30.4044C56.8448 28.9856 51.1454 31.0454 46.9848 32.5496C39.6568 35.1992 38.6252 35.6536 33.6139 32.8474C32.3957 32.165 31.2458 31.5226 30.6032 31.7904C30.5377 31.8189 30.247 31.9984 30.0461 32.3659C29.2111 33.8915 31.5778 36.8587 33.1437 38.8217C35.358 41.598 37.2716 43.9997 39.6867 43.9228C40.0557 43.9128 41.4122 43.4 42.2244 43.1066C46.3793 41.608 46.8153 41.2348 47.1458 41.2348Z" fill="#292C56"/>
<path d="M121.028 91.444V38.8545H52.603V91.444H0V159.851H52.603V212.44H121.028V159.851H173.63V91.444H121.028Z" fill="#56A3A6"/>
<path d="M31.6817 43.5952C25.3012 47.1223 17.2821 44.8146 13.7541 38.4343C10.2661 32.1266 12.5345 24.1124 18.8124 20.5697L53.0518 1.64387C59.418 -1.87463 67.4599 0.440172 70.9793 6.80481C74.4674 13.1139 72.1976 21.1281 65.9197 24.6708L31.6817 43.5952Z" fill="#292C56"/>
<path d="M14.4124 38.0709C17.7366 44.0823 25.3069 46.2618 31.3198 42.9384L48.3867 33.5054L36.3481 11.7349L19.2811 21.1679C13.2682 24.4912 11.0882 32.0595 14.4124 38.0709Z" fill="white"/>
<path d="M13.9138 38.3473C10.4428 32.071 12.7269 24.1408 19.0048 20.6693L36.0732 11.2363C36.3525 11.0811 36.6987 11.1879 36.8483 11.4586L48.8869 33.2291C49.0394 33.504 48.9397 33.8516 48.6647 34.004L31.5977 43.437C25.3041 46.9171 17.3947 44.6393 13.9152 38.3473H13.9138ZM36.1245 12.5084L19.5548 21.6665C13.8254 24.8331 11.7423 32.0681 14.9098 37.7946C15.0124 37.7946 16.7265 41.9356 22.0141 43.457C25.0619 44.3345 28.2678 43.9726 31.042 42.4385L47.6103 33.2804L36.1231 12.507L36.1245 12.5084Z" fill="#292C56"/>
<path d="M220.359 71.2103C233.102 71.2103 243.433 60.8822 243.433 48.142C243.433 35.4017 233.102 25.0737 220.359 25.0737C207.615 25.0737 197.285 35.4017 197.285 48.142C197.285 60.8822 207.615 71.2103 220.359 71.2103Z" fill="white"/>
<path d="M199.331 58.9512C193.355 47.3316 197.924 33.0938 209.547 27.1195C221.141 21.1594 235.425 25.742 241.387 37.3331C247.349 48.9257 242.765 63.2048 231.171 69.1649C219.551 75.1378 205.307 70.568 199.331 58.9498V58.9512ZM220.322 25.6451C203.523 25.6451 192.662 43.4926 200.344 58.4285C206.032 69.4882 219.587 73.8358 230.649 68.1506C241.685 62.4783 246.048 48.8872 240.374 37.8531C236.388 30.1024 228.492 25.6437 220.322 25.6437V25.6451Z" fill="#292C56"/>
<path d="M230.91 68.6577C242.243 62.8315 246.707 48.9242 240.881 37.5938L199.838 58.6905C205.666 70.0209 219.576 74.4839 230.91 68.6591V68.6577Z" fill="#292C56"/>
<path d="M135.279 220.928L135.911 248.126H119.057L115.888 220.928H135.279Z" fill="white"/>
<path d="M135.913 248.697H119.057C118.768 248.697 118.524 248.48 118.491 248.193L115.322 220.995C115.282 220.656 115.547 220.359 115.888 220.359H135.279C135.588 220.359 135.842 220.606 135.849 220.916L136.483 248.114C136.49 248.433 136.234 248.697 135.913 248.697ZM119.564 247.557H135.329L134.722 221.499H116.528L119.563 247.557H119.564Z" fill="#292C56"/>
<path d="M135.853 243.952C136.69 255.615 137.527 267.278 138.364 278.942H125.053V266.101L117.696 278.942H84.6537C84.6537 278.942 83.2531 271.296 92.3593 268.319C101.467 265.342 118.629 244.479 118.629 244.479C124.37 244.304 130.111 244.127 135.852 243.952H135.853Z" fill="#292C56"/>
<path d="M162.942 220.751C164.051 230.225 165.161 239.7 166.269 249.175C172.594 248.883 178.918 248.591 185.243 248.299C184.076 238.96 182.908 229.623 181.741 220.284C175.474 220.439 169.209 220.596 162.942 220.751Z" fill="white"/>
<path d="M166.27 249.745C165.982 249.745 165.738 249.53 165.704 249.241L162.375 220.817C162.337 220.483 162.593 220.188 162.927 220.181L181.725 219.714C182.01 219.691 182.268 219.922 182.305 220.213L185.807 248.228C185.849 248.557 185.601 248.852 185.267 248.868L166.267 249.744L166.27 249.745ZM163.581 221.305L166.774 248.581L184.602 247.759L181.239 220.868L163.581 221.307V221.305Z" fill="#292C56"/>
<path d="M165.452 244.302C165.938 255.849 166.425 267.395 166.911 278.942C171.27 278.962 175.63 278.98 179.988 279C179.91 274.798 179.833 270.596 179.755 266.393C181.584 270.576 183.414 274.759 185.242 278.942H218.284C218.284 278.942 219.685 271.296 210.579 268.319C201.471 265.342 184.308 244.479 184.308 244.479C178.023 244.42 171.737 244.361 165.452 244.302Z" fill="#292C56"/>
<path d="M105.682 91.8398C105.682 91.8398 96.8848 111.348 97.6727 138.925C98.4607 166.502 101.652 235.053 101.652 235.053H139.182C137.138 197.291 135.095 159.529 133.052 121.767C139.474 159.704 145.896 197.641 152.318 235.578C166.91 235.422 181.501 235.265 196.093 235.108C186.288 195.862 178.791 165.271 174.735 144.18C173.216 136.28 170.239 119.623 158.623 102.157C155.622 97.6461 152.764 94.1603 150.735 91.8413H105.682V91.8398Z" fill="#60AFBD"/>
<path d="M212.214 69.4256C202.177 73.0808 192.141 76.7361 182.104 80.3928C179.924 76.4469 176.737 70.5481 173.07 63.2547C167.07 51.3146 167.147 50.2761 164.984 47.6422C158.142 39.3047 147.56 37.7548 134.685 35.8531C124.089 34.2876 111.923 32.4899 100.649 38.8887C98.3423 40.1978 95.6935 42.4642 90.4913 46.9428C82.3767 53.9285 76.1017 60.0581 71.9268 64.306C68.3761 54.7419 64.8253 45.1779 61.2746 35.6124C54.7259 40.8873 48.1773 46.1608 41.6272 51.4357C41.8765 55.8559 42.626 62.2775 44.9542 69.645C47.6529 78.182 51.339 90.0993 59.1401 94.1577C69.345 99.4668 87.1842 91.6776 101.524 74.3714C101.483 79.1577 101.443 83.9426 101.401 88.7289C98.4064 100.198 95.4113 111.666 92.4163 123.135L114.551 125.558C122.129 126.387 129.363 121.283 130.698 113.186C131.567 114.678 132.435 116.169 133.304 117.66C136.986 123.984 144.733 126.675 151.544 123.998C157.843 121.522 164.142 119.046 170.442 116.569L154.416 90.3044L156.586 83.793C159.682 92.726 162.451 100.329 168.968 104.346C179.375 110.76 194.415 104.974 210.023 98.971C214.344 97.3086 217.864 95.6619 220.356 94.4183C217.641 86.0865 214.927 77.7546 212.211 69.4242L212.214 69.4256Z" fill="white"/>
<path d="M116.17 126.218C114.97 126.218 116.159 126.309 92.3565 123.703C92.0103 123.665 91.7795 123.33 91.8664 122.992L100.834 88.655L100.943 75.9471C89.8972 88.7861 76.7002 96.3886 66.4597 96.39C63.6812 96.39 61.1208 95.8302 58.8795 94.665C50.8675 90.4969 47.14 78.4542 44.4129 69.8175C42.542 63.8973 41.4135 57.7236 41.0602 51.4686C41.0502 51.2849 41.1286 51.1082 41.2711 50.9928L60.9184 35.1696C61.2191 34.9274 61.6736 35.0485 61.8104 35.4146L72.1506 63.2691C77.8344 57.5213 83.8758 51.8874 90.1209 46.5114C95.1806 42.1567 97.9676 39.7564 100.37 38.3932C111.445 32.1069 122.923 33.5513 134.84 35.3006C147.513 37.1724 158.457 38.7906 165.426 47.282C166.805 48.9629 167.291 49.99 168.901 53.3931C173.119 62.3076 177.607 71.0554 182.368 79.6921L212.02 68.893C212.325 68.7819 212.657 68.9472 212.757 69.252L220.902 94.2462C220.989 94.514 220.867 94.806 220.614 94.9328C217.245 96.6137 213.753 98.1521 210.231 99.5068C194.334 105.622 179.32 111.397 168.672 104.834C162.236 100.867 159.375 93.5168 156.601 85.5667L155.045 90.2376L170.932 116.276C171.116 116.578 170.983 116.974 170.654 117.104L151.756 124.532C144.632 127.333 136.667 124.565 132.815 117.951L130.959 114.763C129.222 121.504 123.111 126.22 116.173 126.22L116.17 126.218ZM93.1374 122.642L114.616 124.994C122.083 125.81 128.893 120.646 130.114 113.235C130.127 113.155 130.151 112.709 130.597 112.628C130.833 112.585 131.071 112.693 131.192 112.901L133.799 117.376C137.365 123.5 144.74 126.062 151.337 123.47L169.604 116.29L153.932 90.6052C153.845 90.4613 153.825 90.2875 153.878 90.128L156.048 83.6166C156.219 83.1024 156.95 83.0981 157.126 83.6109C160.02 91.9613 162.753 99.8487 169.269 103.864C179.437 110.131 194.195 104.453 209.82 98.4427C213.156 97.1593 216.465 95.7106 219.663 94.1308L211.854 70.1651L182.298 80.93C182.034 81.0254 181.739 80.9158 181.604 80.6707C176.842 72.0511 172.234 63.1082 167.87 53.8817C166.305 50.5755 165.834 49.5783 164.544 48.0057C157.853 39.8533 147.624 38.3419 134.672 36.4288C122.79 34.6781 111.636 33.3092 100.931 39.3861C98.6259 40.6952 95.8688 43.0684 90.8633 47.376C84.4115 52.9301 78.1763 58.762 72.333 64.7064C72.0423 65.0027 71.5379 64.8973 71.3926 64.5056L61.0153 36.5542L42.2129 51.6965C42.5905 57.9472 43.709 63.8119 45.5955 69.7819C48.2586 78.2106 51.9062 89.7533 59.4038 93.6536C69.6913 99.0054 87.2199 90.7433 101.085 74.0098C101.426 73.5981 102.098 73.8431 102.094 74.3773L101.953 88.8744L93.1345 122.642H93.1374Z" fill="#292C56"/>
<path d="M123.011 34.3633C125.366 41.2208 127.72 48.0797 130.075 54.9373C135.583 49.198 141.09 43.4587 146.597 37.7194C138.857 35.8348 130.97 34.7109 123.011 34.3633Z" fill="#60AFBD"/>
<path d="M134.377 41.3665L134.638 41.3864C137.169 41.5789 139.376 39.684 139.569 37.1541L140.348 26.9088C140.541 24.3789 138.645 22.1721 136.115 21.9796L135.853 21.9597C133.323 21.7673 131.115 23.6622 130.923 26.192L130.143 36.4373C129.951 38.9672 131.846 41.1741 134.377 41.3665Z" fill="white"/>
<path d="M134.987 41.9801C131.536 41.9801 129.352 39.2892 129.571 36.406L130.35 26.1611C130.566 23.322 133.051 21.191 135.892 21.4032L136.154 21.4232C138.994 21.6383 141.128 24.124 140.912 26.963L140.134 37.208C139.928 39.9146 137.659 41.9801 134.987 41.9801ZM134.678 40.8291C136.893 40.9972 138.828 39.3348 138.996 37.1211L139.774 26.8762C139.943 24.6639 138.28 22.7266 136.066 22.5585L135.803 22.5386C133.588 22.3691 131.653 24.0343 131.485 26.2465L130.705 36.4915C130.537 38.7037 132.201 40.641 134.414 40.8091L134.676 40.8291H134.678Z" fill="#292C56"/>
<path d="M127.504 18.9773C127.802 17.5328 128.661 16.2664 129.889 15.4516C131.082 14.6596 132.763 13.869 134.808 13.7707C135.741 13.7266 137.8 13.6382 139.852 14.9559C139.956 15.0229 141.956 16.3391 142.81 18.4929C143.14 19.3248 143.274 20.2351 143.237 21.1781C144.095 21.2365 144.834 21.6468 145.173 22.3533C146.037 24.1496 143.837 26.3761 141.581 26.0598C140.283 28.0869 138.863 29.2778 137.237 30.0456C135.473 30.8789 132.455 31.9572 129.665 31.2877C125.751 30.349 126.191 25.3276 127.504 18.9773Z" fill="white"/>
<path d="M131.527 32.0697C124.675 32.0697 125.559 25.5712 126.945 18.8618C127.276 17.2621 128.209 15.8832 129.573 14.9758C133.195 12.5698 137.438 12.7294 140.158 14.4758C140.25 14.5356 142.411 15.9459 143.338 18.2835C143.632 19.0242 143.79 19.8305 143.81 20.688C144.659 20.8817 145.341 21.3889 145.686 22.1068C146.678 24.1709 144.505 26.7492 141.871 26.6566C140.535 28.631 139.113 29.7891 137.479 30.5612C135.907 31.3033 133.746 32.0697 131.526 32.0697H131.527ZM135.513 14.3205C133.669 14.3205 131.991 14.7393 130.204 15.9259C129.091 16.6652 128.33 17.7892 128.061 19.0926C126.696 25.6951 126.511 29.9458 129.798 30.735C132.476 31.3774 135.456 30.2563 136.993 29.5313C138.508 28.8162 139.85 27.7079 141.101 25.7535C141.221 25.5655 141.44 25.4658 141.66 25.4971C142.18 25.5683 142.755 25.4715 143.278 25.2208C145.296 24.2521 145.306 21.8917 143.197 21.7478C142.889 21.7279 142.654 21.4658 142.666 21.1567C142.701 20.2664 142.57 19.4416 142.278 18.7037C141.484 16.7023 139.561 15.4473 139.541 15.4345C138.036 14.4687 136.504 14.3205 135.511 14.3205H135.513Z" fill="#292C56"/>
<path d="M137.237 30.0454C137.237 30.0454 134.176 34.6152 130.318 34.1009L130.52 31.4471C130.52 31.4471 134.46 32.0326 137.237 30.0454Z" fill="#292C56"/>
<path d="M125.842 34.8302C123.698 34.6321 121.545 34.5695 119.393 34.6407C119.865 39.1592 120.335 43.6777 120.807 48.1962L124.996 47.1449L123.011 50.6463C125.074 54.5281 127.136 58.4084 129.199 62.2901C129.491 59.8386 129.783 57.387 130.075 54.9355C128.274 48.3201 126.861 41.6079 125.842 34.8287V34.8302Z" fill="white"/>
<path d="M128.695 62.5579L122.507 50.9141C122.415 50.7417 122.418 50.5352 122.514 50.3657L123.843 48.0209L120.945 48.7474C120.613 48.8315 120.277 48.6021 120.24 48.2546L118.826 34.6991C118.792 34.3714 119.044 34.0823 119.375 34.0709C121.482 34.0011 123.666 34.0581 125.895 34.2632C126.156 34.2874 126.366 34.4868 126.406 34.7461C128.327 47.5309 130.697 54.5409 130.641 55.0052L129.765 62.3585C129.699 62.9112 128.957 63.0494 128.695 62.5579ZM123.661 50.6563L128.849 60.4169L129.495 54.9796C127.803 48.7446 126.392 42.2062 125.346 35.3586C123.594 35.2119 121.834 35.1549 120.024 35.1934L121.305 47.4839L124.858 46.5936C125.339 46.4711 125.74 46.991 125.492 47.4269L123.661 50.6563Z" fill="#292C56"/>
<path d="M144.809 37.4927C139.897 43.3075 134.986 49.1222 130.076 54.937C129.783 57.3886 129.491 59.8401 129.199 62.2917C132.702 59.1108 136.205 55.9299 139.708 52.749L140.671 47.759L144.173 50.2975L150.756 39.1038C148.792 38.4998 146.808 37.9642 144.807 37.4941L144.809 37.4927Z" fill="white"/>
<path d="M128.632 62.2235C129.544 54.5626 129.467 54.772 129.638 54.5697L144.371 37.1254C144.509 36.9616 144.729 36.8903 144.937 36.9388C146.906 37.4003 148.911 37.9402 150.923 38.5584C151.275 38.6667 151.433 39.0755 151.246 39.3917L144.663 50.5868C144.491 50.8803 144.106 50.9544 143.838 50.7592L141.06 48.745C140.203 53.1808 140.286 52.9914 140.089 53.1709L129.581 62.7136C129.193 63.064 128.569 62.7492 128.632 62.225V62.2235ZM130.62 55.1737L129.944 60.8432L139.183 52.4544L140.111 47.651C140.191 47.2421 140.668 47.0541 141.006 47.2977L144.001 49.4686L149.898 39.4387C148.346 38.9758 146.728 38.537 145.018 38.1282L130.621 55.1737H130.62Z" fill="#292C56"/>
<path d="M143.8 21.3786C142.418 22.8758 140.486 23.0211 139.054 21.947C136.422 19.9726 136.447 14.9328 136.447 14.9328C136.447 14.9328 128.646 15.4 127.012 21.0909C127.012 21.0909 123.922 15.739 126.261 10.8801C128.599 6.02114 137.904 9.89292 137.904 9.89292C137.904 9.89292 145.726 8.90574 148.039 13.4784C150.351 18.051 145.36 24.494 145.36 24.494C145.626 23.2248 145.012 21.9384 143.8 21.38V21.3786Z" fill="#292C56"/>
<path d="M101.467 77.5096C101.159 77.5096 100.906 77.2646 100.897 76.9555C100.891 76.7646 100.391 57.6963 102.191 47.7718C102.246 47.4627 102.543 47.2562 102.853 47.3132C103.164 47.3701 103.369 47.665 103.312 47.9756C101.534 57.7846 102.031 76.7332 102.037 76.9241C102.046 77.2389 101.798 77.501 101.483 77.5096C101.477 77.5096 101.473 77.5096 101.467 77.5096Z" fill="#292C56"/>
<path d="M156.082 85.8854C155.696 85.8854 155.418 85.5051 155.541 85.1362C155.585 85.0037 159.95 71.7331 161.032 58.5679C161.058 58.2545 161.331 58.0195 161.646 58.0466C161.959 58.0722 162.193 58.3471 162.168 58.6605C161.076 71.9653 156.668 85.3612 156.623 85.4951C156.544 85.7344 156.321 85.8854 156.082 85.8854Z" fill="#292C56"/>
<path d="M175.611 91.5765C175.218 91.5765 174.938 91.1833 175.077 90.8087C177.811 83.4013 181.574 80.0979 181.732 79.9612C181.97 79.7561 182.329 79.7831 182.536 80.0196C182.741 80.2575 182.715 80.6165 182.477 80.823C182.44 80.8543 178.768 84.0951 176.145 91.2033C176.06 91.4341 175.843 91.5765 175.611 91.5765Z" fill="#292C56"/>
<path d="M123.007 95.8195L104.467 93.1221L103.937 96.7604L122.477 99.4578L123.007 95.8195Z" fill="white"/>
<path d="M122.482 100.024L103.858 97.3215C103.545 97.2759 103.331 96.9853 103.376 96.6747L103.907 93.0366C103.952 92.7246 104.241 92.5109 104.553 92.5551L123.094 95.2517C123.407 95.2972 123.621 95.5878 123.575 95.8984L123.045 99.5365C123.004 99.82 122.76 100.024 122.482 100.024ZM104.586 96.2759L121.999 98.8086L122.364 96.2987L104.951 93.7659L104.586 96.2759Z" fill="#292C56"/>
<path d="M152.123 92.6491L135.64 96.3809L136.452 99.9667L152.935 96.2349L152.123 92.6491Z" fill="white"/>
<path d="M136.457 100.528C136.192 100.528 135.96 100.344 135.902 100.084L135.09 96.4967C135.02 96.1905 135.212 95.8842 135.52 95.8158L152.003 92.0836C152.309 92.0138 152.615 92.2062 152.684 92.5138L153.496 96.0993C153.566 96.407 153.373 96.7118 153.066 96.7816L136.457 100.528ZM136.326 96.8016L136.888 99.2759L152.259 95.7945L151.698 93.3201L136.326 96.8016Z" fill="#292C56"/>
<path d="M128.458 69.0452C129.35 69.0452 130.074 68.322 130.074 67.4298C130.074 66.5377 129.35 65.8145 128.458 65.8145C127.566 65.8145 126.842 66.5377 126.842 67.4298C126.842 68.322 127.566 69.0452 128.458 69.0452Z" fill="white"/>
<path d="M128.458 69.6164C127.253 69.6164 126.271 68.6364 126.271 67.4312C126.271 66.2261 127.251 65.2446 128.458 65.2446C129.665 65.2446 130.644 66.2247 130.644 67.4312C130.644 68.6378 129.664 69.6164 128.458 69.6164ZM128.458 66.3842C127.881 66.3842 127.411 66.8529 127.411 67.4312C127.411 68.0096 127.88 68.4768 128.458 68.4768C129.037 68.4768 129.504 68.0081 129.504 67.4312C129.504 66.8543 129.035 66.3842 128.458 66.3842Z" fill="#292C56"/>
<path d="M128.458 84.5682C129.35 84.5682 130.074 83.8449 130.074 82.9528C130.074 82.0606 129.35 81.3374 128.458 81.3374C127.566 81.3374 126.842 82.0606 126.842 82.9528C126.842 83.8449 127.566 84.5682 128.458 84.5682Z" fill="white"/>
<path d="M128.458 85.1379C127.253 85.1379 126.271 84.1579 126.271 82.9528C126.271 81.7476 127.251 80.7676 128.458 80.7676C129.665 80.7676 130.644 81.7476 130.644 82.9528C130.644 84.1579 129.664 85.1379 128.458 85.1379ZM128.458 81.9057C127.881 81.9057 127.411 82.3744 127.411 82.9513C127.411 83.5283 127.88 83.9969 128.458 83.9969C129.037 83.9969 129.504 83.5283 129.504 82.9513C129.504 82.3744 129.035 81.9057 128.458 81.9057Z" fill="#292C56"/>
<path d="M129.199 103.827C130.091 103.827 130.815 103.104 130.815 102.212C130.815 101.319 130.091 100.596 129.199 100.596C128.307 100.596 127.583 101.319 127.583 102.212C127.583 103.104 128.307 103.827 129.199 103.827Z" fill="white"/>
<path d="M129.199 104.398C127.994 104.398 127.013 103.418 127.013 102.213C127.013 101.008 127.994 100.026 129.199 100.026C130.405 100.026 131.385 101.006 131.385 102.213C131.385 103.42 130.405 104.398 129.199 104.398ZM129.199 101.166C128.622 101.166 128.153 101.635 128.153 102.213C128.153 102.791 128.622 103.259 129.199 103.259C129.776 103.259 130.245 102.79 130.245 102.213C130.245 101.636 129.776 101.166 129.199 101.166Z" fill="#292C56"/>
<path d="M70.1758 78.9698C69.7284 78.9698 69.4492 78.4684 69.6999 78.0867C73.1994 72.7562 71.3912 64.5127 71.3713 64.43C71.3015 64.1238 71.4938 63.8189 71.8016 63.7491C72.108 63.6779 72.4143 63.8716 72.4827 64.1793C72.5639 64.5354 74.4191 72.9742 70.6517 78.7134C70.542 78.8801 70.3611 78.9698 70.1744 78.9698H70.1758Z" fill="#292C56"/>
</g>
<defs>
<clipPath id="clip0_638_6701">
<rect width="244" height="279" fill="white"/>
</clipPath>
</defs>
</svg>
