<svg width="302" height="254" viewBox="0 0 302 254" fill="none" xmlns="http://www.w3.org/2000/svg">
<g clip-path="url(#clip0_638_6841)">
<path d="M148.419 106.24V48.6431H73.5013V106.24H15.9031V181.159H73.5013V238.756H148.419V181.159H206.018V106.24H148.419Z" fill="#56A3A6"/>
<path d="M289.877 1.72998H141.847C136.709 1.72998 132.543 5.89569 132.543 11.0344V244.697C132.543 249.836 136.709 254.002 141.847 254.002H289.877C295.016 254.002 299.182 249.836 299.182 244.697V11.0344C299.182 5.89569 295.016 1.72998 289.877 1.72998Z" fill="#292C56"/>
<path d="M284.128 11.5627H238.9C238.9 15.0928 236.038 17.9542 232.508 17.9542H199.218C195.688 17.9542 192.827 15.0928 192.827 11.5627H147.598C142.7 11.5627 138.729 15.5339 138.729 20.4323V235.298C138.729 240.196 142.7 244.167 147.598 244.167H284.129C289.028 244.167 292.999 240.196 292.999 235.298V20.4323C292.999 15.5339 289.028 11.5627 284.129 11.5627H284.128Z" fill="white"/>
<path d="M284.128 244.791H147.597C142.362 244.791 138.104 240.533 138.104 235.298V20.4322C138.104 15.1971 142.362 10.9392 147.597 10.9392H192.825C193.169 10.9392 193.448 11.2182 193.448 11.5626C193.448 14.7436 196.036 17.3307 199.216 17.3307H232.507C235.687 17.3307 238.275 14.7436 238.275 11.5626C238.275 11.2182 238.554 10.9392 238.898 10.9392H284.126C289.361 10.9392 293.619 15.1971 293.619 20.4322V235.298C293.619 240.533 289.361 244.791 284.126 244.791H284.128ZM147.597 12.186C143.049 12.186 139.351 15.886 139.351 20.4322V235.298C139.351 239.845 143.051 243.544 147.597 243.544H284.128C288.676 243.544 292.374 239.844 292.374 235.298V20.4322C292.374 15.8844 288.674 12.186 284.128 12.186H239.495C239.179 15.7628 236.164 18.5775 232.507 18.5775H199.216C195.559 18.5775 192.546 15.7628 192.228 12.186H147.595H147.597Z" fill="#292C56"/>
<path d="M104.912 132.114C102.612 126.834 100.311 121.552 98.0108 116.272C94.7955 114.442 91.5803 112.613 88.3635 110.781L101.461 82.9539L116.216 105.934C112.447 114.66 108.68 123.387 104.912 132.113V132.114Z" fill="white"/>
<path d="M104.34 132.364L97.5214 116.711L88.055 111.324C87.7713 111.163 87.6607 110.811 87.7994 110.516L100.897 82.6889C101.109 82.24 101.726 82.2135 101.985 82.6172L116.74 105.598C116.852 105.772 116.869 105.99 116.788 106.182L105.484 132.361C105.264 132.87 104.553 132.853 104.34 132.362V132.364ZM89.1724 110.526C98.6404 115.913 98.4519 115.728 98.5812 116.023L104.909 130.548L115.511 105.993L101.544 84.2396L89.1724 110.526Z" fill="#292C56"/>
<path d="M174.397 175.186L157.138 244.167H212.367L218.767 209.677L223.38 244.167H272.582C272.582 244.167 271.624 198.581 256.473 175.186H174.397Z" fill="#60AFBD"/>
<path d="M218.765 71.9553C218.765 71.9553 174.78 71.3771 165.767 83.9185C156.755 96.4599 174.397 175.186 174.397 175.186H256.473C256.473 175.186 272.582 102.25 268.938 87.3924C265.295 72.5351 218.767 71.9569 218.767 71.9569L218.765 71.9553Z" fill="#60AFBD"/>
<path d="M185.643 75.4122C176.947 76.8554 168.76 80.4041 161.759 85.7764C157.4 89.121 152.107 100.328 149.796 105.312C146.4 112.637 142.051 122.86 137.854 135.585C129.271 123.359 120.689 111.132 112.106 98.9069C105.038 114.146 97.9685 129.385 90.9006 144.625C92.4545 147.876 94.8125 152.383 98.1758 157.439C105.333 168.199 119.492 189.29 138.859 189.703C145.249 189.839 151.628 187.531 157.557 183.373C154.477 195.153 151.396 206.934 148.317 218.715C153.491 219.368 158.667 220.023 163.841 220.676C175.449 222.142 186.09 214.036 187.761 202.457C189.96 187.211 192.161 171.967 194.36 156.722C194.619 154.923 194.645 153.098 194.436 151.293C191.505 125.999 188.573 100.705 185.642 75.4106L185.643 75.4122Z" fill="white"/>
<path d="M166.508 221.469C164.581 221.469 164.907 221.441 148.24 219.335C147.868 219.289 147.62 218.922 147.715 218.559L156.539 184.811C150.745 188.548 144.662 190.448 138.849 190.327C119.024 189.904 104.594 168.21 97.6599 157.785C94.9294 153.68 92.4669 149.342 90.3411 144.894C90.2616 144.726 90.2601 144.531 90.338 144.363L111.543 98.6451C111.747 98.2072 112.347 98.1604 112.619 98.5485L137.655 134.214C141.001 124.211 144.894 114.405 149.231 105.051C151.953 99.1812 156.521 89.4779 161.346 85.3104C168.445 79.8587 176.711 76.2632 185.542 74.7982C185.892 74.7405 186.223 74.9868 186.263 75.3405L195.058 151.223C195.273 153.081 195.247 154.961 194.98 156.812L188.381 202.547C186.806 213.464 177.288 221.469 166.509 221.469H166.508ZM149.1 218.187L163.92 220.059C175.114 221.477 185.536 213.538 187.146 202.369L193.744 156.635C193.997 154.889 194.02 153.117 193.818 151.367L185.099 76.1385C176.749 77.6285 168.895 81.0915 162.162 86.2517C159.53 88.6955 156.641 92.0308 150.361 105.574C145.874 115.253 141.864 125.416 138.446 135.78C138.286 136.266 137.638 136.363 137.345 135.944L112.218 100.149L91.5911 144.62C93.6623 148.923 96.0515 153.119 98.6948 157.093C105.512 167.343 119.699 188.67 138.872 189.078C144.953 189.209 151.13 187.116 157.199 182.861C157.672 182.529 158.307 182.969 158.16 183.53L149.099 218.187H149.1Z" fill="#292C56"/>
<path d="M286.198 111.328C280.071 95.1694 274.933 88.0595 267.788 82.8509C258.241 75.8905 247.8 74.2821 241.028 74.0156L231.244 73.3127C234.079 92.4155 236.916 111.518 239.75 130.62C236.317 129.641 232.885 128.662 229.452 127.683C228.663 142.271 227.875 156.859 227.086 171.445C231.45 173.362 235.814 175.279 240.179 177.198L239.506 202.07C239.249 211.577 247.333 219.184 256.805 218.352L281.02 216.223L274.752 184.523C284.949 186.151 291.203 186.013 294.9 182.966C308.966 171.372 294.98 134.486 286.198 111.327V111.328Z" fill="white"/>
<path d="M255.415 219.036C246.109 219.036 238.63 211.356 238.882 202.053L239.543 177.6L226.835 172.017C226.597 171.913 226.45 171.673 226.464 171.412L228.83 127.651C228.852 127.255 229.235 126.974 229.623 127.085L238.991 129.756L230.627 73.4048C230.568 73.0043 230.898 72.6614 231.288 72.691L241.072 73.3939C248.199 73.6729 258.702 75.4543 268.154 82.346C275.932 88.0175 280.98 95.8117 286.779 111.105C295.909 135.183 309.705 171.568 295.295 183.446C291.743 186.373 286.165 186.901 275.534 185.275L281.629 216.101C281.701 216.463 281.444 216.811 281.073 216.843C255.562 219.086 256.477 219.035 255.414 219.035L255.415 219.036ZM227.731 171.049L240.428 176.627C240.661 176.729 240.807 176.961 240.801 177.215L240.128 202.087C239.88 211.231 247.676 218.534 256.749 217.732L280.272 215.663L274.139 184.644C274.054 184.214 274.429 183.837 274.848 183.909C285.515 185.612 291.21 185.201 294.501 182.487C308.223 171.177 294.068 133.852 285.611 111.55C279.907 96.5083 274.978 88.8669 267.417 83.356C258.219 76.6496 247.975 74.915 241 74.6407L231.97 73.9924L240.363 130.531C240.43 130.98 240.009 131.346 239.576 131.221L230.028 128.5L227.728 171.051L227.731 171.049Z" fill="#292C56"/>
<path d="M211.497 55.451L211.1 55.4559C207.405 55.501 204.446 58.5329 204.491 62.2278L204.642 74.6016C204.687 78.2965 207.719 81.2552 211.414 81.2101L211.812 81.2052C215.507 81.1601 218.465 78.1281 218.42 74.4332L218.269 62.0595C218.224 58.3646 215.192 55.4059 211.497 55.451Z" fill="white"/>
<path d="M211.334 81.8316C207.341 81.8316 204.07 78.6086 204.02 74.6063L203.869 62.2348C203.82 58.2013 207.061 54.8801 211.094 54.8318L211.49 54.8271C215.447 54.7726 218.843 57.9364 218.893 62.0524L219.044 74.424C219.094 78.4574 215.852 81.7786 211.819 81.8285L211.332 81.8347L211.334 81.8316ZM211.582 56.0724L211.108 56.0786C207.762 56.1191 205.073 58.8746 205.114 62.2207L205.265 74.5923C205.306 77.9384 208.061 80.6269 211.407 80.5863L211.803 80.5817C215.149 80.5411 217.838 77.7857 217.797 74.4395L217.646 62.068C217.606 58.7406 214.9 56.0739 211.582 56.0739V56.0724Z" fill="#292C56"/>
<path d="M228.122 52.1499C227.198 50.5945 224.91 50.2376 222.92 51.2942C222.314 42.3281 212.201 38.2073 205.021 42.2626C201.279 44.376 199.567 47.4494 199.564 51.447C197.621 50.6085 195.506 51.0527 194.659 52.5582C193.74 54.1962 194.672 56.467 196.742 57.6281C198.16 58.4245 199.743 58.4931 200.897 57.9304C202.991 63.1717 207.249 67.6509 211.565 67.5979C215.88 67.5434 220.113 62.9598 221.971 57.6499C223.141 58.2094 224.747 58.1112 226.163 57.2696C228.204 56.0571 229.081 53.7661 228.121 52.1499H228.122Z" fill="white"/>
<path d="M211.485 68.2212C206.764 68.2212 202.595 63.4179 200.555 58.7298C196.589 59.919 192.248 55.5801 194.115 52.2542C194.982 50.7112 196.971 50.0645 198.967 50.585C199.217 46.603 201.239 43.6823 204.713 41.7201C209.468 39.0348 215.994 39.7798 219.893 43.4532C221.764 45.2143 223.099 47.7111 223.455 50.3808C225.529 49.6546 227.702 50.2188 228.659 51.8303C229.792 53.7395 228.816 56.4186 226.483 57.8041C225.16 58.5896 223.629 58.8171 222.339 58.4509C220.557 63.036 216.404 68.2212 211.485 68.2212ZM201.476 57.6997C203.677 63.2075 207.844 67.0305 211.557 66.9744C215.333 66.9277 219.466 62.9191 221.383 57.4441C221.506 57.0934 221.905 56.9282 222.241 57.0872C223.271 57.5797 224.652 57.4441 225.847 56.7334C227.589 55.6985 228.37 53.7862 227.588 52.4677C226.841 51.2115 224.921 50.9372 223.215 51.8443C223.028 51.9425 222.803 51.9409 222.619 51.8381C222.107 51.5528 222.442 51.1523 222.007 49.4099C220.19 42.1176 211.413 39.3699 205.329 42.8049C201.746 44.8278 200.192 47.722 200.189 51.4469C200.189 51.8942 199.729 52.1965 199.318 52.0188C196.634 50.8593 194.139 52.5565 195.158 55.0346C195.998 57.0809 198.761 58.2794 200.625 57.3692C200.951 57.2103 201.344 57.3615 201.478 57.6981L201.476 57.6997Z" fill="#292C56"/>
<path d="M209.297 67.2206C209.297 67.2206 212.701 70.8037 218.358 69.3169L218.297 64.3296C218.297 64.3296 214.055 68.4737 209.297 67.2191V67.2206Z" fill="#292C56"/>
<path d="M196.907 51.3533C196.907 51.3533 198.512 51.1382 199.639 52.2635C200.766 53.3903 203.618 54.3488 204.001 45.5992C204.001 45.5992 205.966 43.2256 208.7 46.846C211.432 50.4649 217.281 46.7027 217.281 46.7027C217.281 46.7027 219.367 55.4039 223.801 51.305L225.839 50.7299C225.747 49.7122 225.657 48.6945 225.565 47.6783C229.344 43.9503 230.256 39.041 228.331 36.1561C227.134 34.3623 224.293 32.5341 222.122 33.1669C221.12 33.4583 220.928 34.0802 219.87 34.2625C218.092 34.568 216.966 33.1014 215.339 32.2256C209.599 29.1335 201.283 35.3816 200.549 35.9644C200.307 36.1561 199.757 36.5988 199.302 37.3671C198.57 38.6015 198.632 39.7517 198.632 39.7517C198.632 39.7517 194.581 39.3683 193.118 42.0053C191.656 44.6423 194.304 47.8061 194.304 47.8061L195.141 51.9346L196.905 51.3533H196.907Z" fill="#292C56"/>
<path d="M291.807 152.797C291.648 152.797 291.487 152.736 291.365 152.615C285.798 147.048 276.203 144.327 276.106 144.3L239.54 131.207C239.216 131.092 239.047 130.733 239.163 130.411C239.28 130.087 239.635 129.917 239.959 130.034L276.483 143.113C276.846 143.212 286.445 145.93 292.246 151.733C292.64 152.127 292.355 152.797 291.805 152.797H291.807Z" fill="#292C56"/>
<path d="M274.705 185.145C262.04 184.194 240.223 177.86 240.003 177.796C239.672 177.699 239.482 177.353 239.579 177.023C239.676 176.693 240.022 176.503 240.352 176.599C240.57 176.663 262.263 182.959 274.797 183.901C275.14 183.926 275.398 184.225 275.372 184.569C275.345 184.917 275.043 185.171 274.703 185.145H274.705Z" fill="#292C56"/>
<path d="M263.986 139.923H263.971C263.627 139.915 263.354 139.63 263.362 139.285C263.725 122.19 260.441 90.9944 260.409 90.6811C260.373 90.3382 260.621 90.0312 260.964 89.9954C261.303 89.9626 261.613 90.2073 261.649 90.5502C261.682 90.8635 264.975 122.137 264.61 139.312C264.603 139.651 264.325 139.923 263.987 139.923H263.986Z" fill="#292C56"/>
<path d="M121.787 28.5775L52.9477 0.358343C50.4963 -0.646553 47.6944 0.526078 46.6895 2.97749L0.364325 115.986C-0.640572 118.438 0.532062 121.239 2.98347 122.244L71.8232 150.464C74.2746 151.468 77.0765 150.296 78.0814 147.844L124.407 34.8357C125.411 32.3843 124.239 29.5824 121.787 28.5775Z" fill="#60AFBD"/>
<path d="M60.8042 34.7705C66.4438 34.7705 71.0156 30.1987 71.0156 24.5591C71.0156 18.9195 66.4438 14.3477 60.8042 14.3477C55.1646 14.3477 50.5928 18.9195 50.5928 24.5591C50.5928 30.1987 55.1646 34.7705 60.8042 34.7705Z" fill="white"/>
<path d="M60.8043 35.4003C53.0911 35.4003 47.8639 27.5578 50.7783 20.4494C53.0444 14.9213 59.386 12.2687 64.9141 14.5348C70.4546 16.8071 73.101 23.1285 70.8287 28.6706C69.0847 32.9254 64.992 35.4019 60.8043 35.4019V35.4003ZM60.8167 14.9712C53.9686 14.9712 49.3164 21.9425 51.9597 28.2607C54.006 33.1498 59.6167 35.4502 64.5058 33.4038C72.3093 30.1372 72.3763 18.9392 64.4419 15.6881C63.2558 15.2019 62.0261 14.9712 60.8167 14.9712Z" fill="#292C56"/>
<path d="M98.5984 50.2656C104.238 50.2656 108.81 45.6938 108.81 40.0542C108.81 34.4146 104.238 29.8428 98.5984 29.8428C92.9588 29.8428 88.387 34.4146 88.387 40.0542C88.387 45.6938 92.9588 50.2656 98.5984 50.2656Z" fill="white"/>
<path d="M98.5984 50.8953C90.8759 50.8953 85.6611 43.0466 88.5724 35.9444C90.8385 30.4163 97.1786 27.7622 102.708 30.0282C108.236 32.2943 110.889 38.636 108.624 44.164C106.88 48.4188 102.788 50.8953 98.5999 50.8953H98.5984ZM98.6108 30.4662C91.7627 30.4662 87.1105 37.4375 89.7538 43.7557C91.8001 48.6432 97.4123 50.9467 102.3 48.8988C104.663 47.9107 106.499 46.0608 107.469 43.6902C110.052 37.3891 105.392 30.4646 98.6108 30.4646V30.4662Z" fill="#292C56"/>
<path d="M49.0796 63.3711C54.7192 63.3711 59.291 58.7993 59.291 53.1597C59.291 47.5201 54.7192 42.9482 49.0796 42.9482C43.44 42.9482 38.8682 47.5201 38.8682 53.1597C38.8682 58.7993 43.44 63.3711 49.0796 63.3711Z" fill="white"/>
<path d="M49.0795 64.0008C41.3913 64.0008 36.1375 56.163 39.0535 49.0499C41.3196 43.5218 47.6612 40.8677 53.1893 43.1353C58.7299 45.4076 61.3762 51.729 59.1039 57.2711C57.3599 61.5259 53.2672 64.0024 49.0795 64.0024V64.0008ZM49.092 43.5702C45.3141 43.5702 41.7279 45.816 40.2084 49.5221C38.2026 54.4143 40.5513 60.025 45.4435 62.0308C50.3466 64.0413 55.9417 61.6989 57.9521 56.7958C60.5331 50.5009 55.8965 43.5702 49.0935 43.5702H49.092Z" fill="#292C56"/>
<path d="M86.8735 78.8645C92.5132 78.8645 97.085 74.2927 97.085 68.6531C97.085 63.0135 92.5132 58.4417 86.8735 58.4417C81.2339 58.4417 76.6621 63.0135 76.6621 68.6531C76.6621 74.2927 81.2339 78.8645 86.8735 78.8645Z" fill="white"/>
<path d="M86.8736 79.4942C79.1464 79.4942 73.9379 71.6392 76.8476 64.5433C79.1137 59.0152 85.4538 56.361 90.9834 58.6271C96.5115 60.8932 99.1641 67.2348 96.8996 72.7629C95.1556 77.0177 91.0629 79.4942 86.8751 79.4942H86.8736ZM86.8861 59.0651C80.0379 59.0651 75.3842 66.0379 78.029 72.3546C80.0753 77.2437 85.6875 79.544 90.5751 77.4977C92.9378 76.5096 94.7737 74.6596 95.7447 72.2891C98.3272 65.988 93.6672 59.0635 86.8861 59.0635V59.0651Z" fill="#292C56"/>
<path d="M37.3547 91.9702C42.9944 91.9702 47.5662 87.3984 47.5662 81.7588C47.5662 76.1192 42.9944 71.5474 37.3547 71.5474C31.7151 71.5474 27.1433 76.1192 27.1433 81.7588C27.1433 87.3984 31.7151 91.9702 37.3547 91.9702Z" fill="white"/>
<path d="M37.3546 92.5998C29.6664 92.5998 24.4127 84.762 27.3287 77.6489C29.5948 72.1208 35.9364 69.4682 41.4645 71.7343C47.005 74.0066 49.6514 80.328 47.379 85.8701C45.6351 90.1248 41.5424 92.6013 37.3546 92.6013V92.5998ZM37.3671 72.1707C33.5892 72.1707 30.0031 74.4165 28.4835 78.1227C26.4777 83.0149 28.8264 88.6255 33.7186 90.6314C38.6217 92.6418 44.2168 90.2994 46.2273 85.3963C48.8082 79.1014 44.1716 72.1707 37.3687 72.1707H37.3671Z" fill="#292C56"/>
<path d="M75.1489 107.465C80.7885 107.465 85.3604 102.893 85.3604 97.2534C85.3604 91.6138 80.7885 87.042 75.1489 87.042C69.5093 87.042 64.9375 91.6138 64.9375 97.2534C64.9375 102.893 69.5093 107.465 75.1489 107.465Z" fill="white"/>
<path d="M75.149 108.093C67.4218 108.093 62.2132 100.238 65.123 93.1419C67.3891 87.6138 73.7307 84.9597 79.2588 87.2258C84.7869 89.4918 87.4395 95.8335 85.1749 101.362C83.431 105.616 79.3383 108.093 75.1505 108.093H75.149ZM75.1614 87.6637C68.3133 87.6637 63.6596 94.6365 66.3044 100.953C68.3507 105.842 73.9629 108.143 78.8505 106.096C81.2132 105.108 83.0491 103.258 84.0201 100.888C86.6025 94.5867 81.9426 87.6621 75.1614 87.6621V87.6637Z" fill="#292C56"/>
<path d="M25.6301 120.569C31.2697 120.569 35.8416 115.997 35.8416 110.357C35.8416 104.718 31.2697 100.146 25.6301 100.146C19.9905 100.146 15.4187 104.718 15.4187 110.357C15.4187 115.997 19.9905 120.569 25.6301 120.569Z" fill="white"/>
<path d="M25.63 121.198C17.9418 121.198 12.6881 113.361 15.6041 106.247C17.8701 100.719 24.2102 98.0668 29.7398 100.333C35.2804 102.605 37.9268 108.927 35.6544 114.469C33.9104 118.723 29.8178 121.2 25.63 121.2V121.198ZM25.6425 100.769C21.8646 100.769 18.2785 103.015 16.7589 106.721C14.7531 111.613 17.1018 117.224 21.994 119.23C26.8971 121.24 32.4922 118.898 34.5027 113.995C37.0836 107.7 32.447 100.769 25.6441 100.769H25.6425Z" fill="#292C56"/>
<path d="M63.4241 136.064C69.0637 136.064 73.6355 131.492 73.6355 125.852C73.6355 120.213 69.0637 115.641 63.4241 115.641C57.7845 115.641 53.2126 120.213 53.2126 125.852C53.2126 131.492 57.7845 136.064 63.4241 136.064Z" fill="white"/>
<path d="M63.4241 136.693C55.697 136.693 50.4884 128.838 53.3982 121.742C55.6642 116.214 62.0059 113.56 67.5339 115.826C73.0745 118.099 75.7209 124.422 73.4485 129.962C71.7045 134.217 67.6119 136.693 63.4241 136.693ZM63.4366 116.264C56.5884 116.264 51.9347 123.237 54.5795 129.554C56.6259 134.443 62.2381 136.743 67.1256 134.697C74.9276 131.432 74.9977 120.234 67.0617 116.98C65.8757 116.493 64.646 116.263 63.4366 116.263V116.264Z" fill="#292C56"/>
<path d="M50.8173 27.3164C50.5227 27.3164 50.2609 27.1075 50.2048 26.8083C50.1409 26.4701 50.3637 26.1444 50.7019 26.0805L70.7695 22.3151C71.1092 22.2496 71.4334 22.474 71.4973 22.8122C71.5612 23.1504 71.3383 23.4762 71.0001 23.5401L50.8173 27.3164Z" fill="#292C56"/>
<path d="M104.215 49.2074C104.017 49.2074 103.824 49.1138 103.703 48.9393L92.0526 32.1712C91.8562 31.8891 91.9263 31.4994 92.2084 31.3031C92.4921 31.1067 92.8802 31.1768 93.0765 31.4589L104.726 48.227C105.015 48.6432 104.712 49.2058 104.215 49.2058V49.2074Z" fill="#292C56"/>
<path d="M58.5274 57.656C58.3357 57.656 58.5055 57.6965 39.3949 49.8618C39.077 49.7309 38.9243 49.3678 39.0552 49.0483C39.1861 48.7303 39.5508 48.5776 39.8687 48.7085L58.7658 56.4559C59.3955 56.7146 59.21 57.656 58.5289 57.656H58.5274Z" fill="#292C56"/>
<path d="M77.3558 69.5336C77.0254 69.5336 76.7511 69.2749 76.7339 68.9414C76.7168 68.597 76.9817 68.304 77.3246 68.2868L96.2388 67.3361C96.5817 67.3174 96.8763 67.5839 96.8934 67.9268C96.9106 68.2712 96.6456 68.5643 96.3027 68.5814L77.3574 69.5336H77.3558Z" fill="#292C56"/>
<path d="M33.5349 91.7004C33.0938 91.7004 32.7899 91.2515 32.9582 90.8401L40.6511 72.0739C40.782 71.756 41.1467 71.6032 41.4646 71.7341C41.7826 71.8651 41.9353 72.2282 41.8044 72.5477L34.1115 91.3139C34.0134 91.5554 33.7796 91.7004 33.5349 91.7004Z" fill="#292C56"/>
<path d="M79.3429 107.184C79.1075 107.184 78.8815 107.05 78.7756 106.821L70.2551 88.264C70.1117 87.9507 70.2489 87.5814 70.5606 87.438C70.8738 87.2946 71.2432 87.4302 71.3866 87.7434L79.907 106.301C80.0972 106.717 79.7917 107.184 79.3413 107.184H79.3429Z" fill="#292C56"/>
<path d="M15.7675 113.622C15.0506 113.622 14.9041 112.602 15.593 112.401L35.1929 106.686C35.5233 106.59 35.8693 106.779 35.966 107.109C36.0626 107.44 35.8724 107.786 35.542 107.882L15.7675 113.622Z" fill="#292C56"/>
<path d="M67.6197 135.783C67.3891 135.783 67.1678 135.655 67.0587 135.434L58.0863 117.103C57.9351 116.794 58.0629 116.42 58.3715 116.269C58.68 116.118 59.0541 116.245 59.2053 116.554L68.1777 134.885C68.3818 135.303 68.0733 135.783 67.6182 135.783H67.6197Z" fill="#292C56"/>
<path d="M109.246 95.0823C109.246 95.0823 102.714 83.6458 100.832 81.4499C98.9491 79.2539 87.1074 76.352 86.5573 77.9214C86.0087 79.4893 87.0279 85.6563 93.6937 86.2797C93.6937 86.2797 95.2226 97.4091 99.9683 99.8217L109.245 95.0838L109.246 95.0823Z" fill="white"/>
<path d="M99.9698 100.444C99.8748 100.444 99.7781 100.422 99.6877 100.377C95.2366 98.112 93.5129 89.0663 93.1513 86.8439C89.8426 86.3903 88.0534 84.6183 87.1276 83.1751C85.7577 81.0399 85.6267 78.6975 85.9712 77.7141C86.1146 77.3057 86.4964 77.0392 87.1042 76.9254C89.9485 76.3893 99.4914 78.9266 101.305 81.0446C103.204 83.2593 109.519 94.3045 109.787 94.7736C109.958 95.0729 109.854 95.4531 109.555 95.6246C109.255 95.796 108.875 95.6916 108.704 95.3924C108.638 95.2786 102.18 83.9824 100.358 81.8566C98.7137 79.9381 88.51 77.4382 87.1229 78.2034C86.9421 78.8845 87.0637 80.7687 88.1749 82.5034C88.9947 83.7829 90.6296 85.3679 93.7513 85.6594C94.0396 85.6859 94.2719 85.9088 94.3108 86.1955C94.3264 86.3031 95.8506 97.0304 100.25 99.2668C100.833 99.563 100.621 100.447 99.9667 100.447L99.9698 100.444Z" fill="#292C56"/>
<path d="M144.821 157.063C144.821 157.063 144.81 157.063 144.804 157.063C144.459 157.054 144.188 156.767 144.198 156.423C144.391 149.258 142.542 144.101 140.959 141.037C139.241 137.716 137.454 136.064 137.437 136.048C137.183 135.816 137.164 135.422 137.395 135.168C137.625 134.913 138.02 134.893 138.274 135.125C138.582 135.404 145.829 142.145 145.443 156.457C145.433 156.795 145.156 157.063 144.819 157.063H144.821Z" fill="#292C56"/>
<path d="M231.242 73.3127L239.225 127.091L242.813 105.621L239.749 101.022L244.538 100.202C242.08 91.3807 239.623 82.5595 237.165 73.7382C235.19 73.5964 233.216 73.4546 231.242 73.3127Z" fill="white"/>
<path d="M238.608 127.182L230.625 73.4048C230.566 73.0043 230.896 72.6614 231.286 72.691L237.209 73.1165C237.472 73.1352 237.693 73.3175 237.765 73.5716L245.138 100.035C245.236 100.392 245.007 100.755 244.643 100.818L240.798 101.475L243.33 105.277C243.418 105.409 243.454 105.568 243.427 105.725L239.839 127.196C239.724 127.883 238.714 127.898 238.608 127.185V127.182ZM231.973 73.9908L239.261 123.09L242.157 105.761L239.23 101.366C238.979 100.991 239.199 100.483 239.643 100.406L243.751 99.7033L236.68 74.329L231.972 73.9908H231.973Z" fill="#292C56"/>
<path d="M185.643 75.4124L179.311 76.8618L180.249 101.786L185.643 103.319L181.496 106.485L191.179 120.675L185.643 75.4124Z" fill="white"/>
<path d="M190.665 121.026L180.98 106.835C180.793 106.561 180.854 106.19 181.117 105.989L184.275 103.579L180.078 102.386C179.818 102.312 179.635 102.079 179.626 101.809L178.688 76.8851C178.677 76.5858 178.879 76.3209 179.172 76.2539L185.503 74.806C185.855 74.7234 186.215 74.965 186.261 75.3375L191.798 120.6C191.877 121.248 191.03 121.563 190.663 121.027L190.665 121.026ZM182.344 106.622L190.25 118.206L185.109 76.1744L179.955 77.3542L180.856 101.31L185.813 102.721C186.306 102.861 186.429 103.505 186.021 103.816L182.344 106.622Z" fill="#292C56"/>
<path d="M160.76 188.429L231.595 185.807L228.381 98.9884L157.547 101.611L160.76 188.429Z" fill="#292C56"/>
<path d="M181.894 105.335L204.426 104.501L204.138 96.7248L181.606 97.5589L181.894 105.335Z" fill="white"/>
<path d="M181.898 105.95C181.565 105.95 181.287 105.685 181.275 105.35L180.987 97.5727C180.974 97.2283 181.242 96.9384 181.587 96.9259L204.118 96.0921C204.478 96.0812 204.751 96.3477 204.765 96.6921L205.053 104.469C205.066 104.814 204.798 105.103 204.453 105.116L181.898 105.95ZM182.257 98.1494L182.498 104.68L203.783 103.893L203.541 97.3623L182.257 98.1494Z" fill="#292C56"/>
<path d="M229.503 127.545C229.503 127.545 214.068 121.485 208.005 122.389C201.942 123.293 190.819 124.197 191.407 126.907C191.996 129.617 204.355 129.102 204.355 129.102C204.355 129.102 189.758 130.392 190.228 133.749C190.699 137.105 202.824 134.782 202.824 134.782C202.824 134.782 190.523 135.944 190.699 138.526C190.875 141.107 203.295 140.462 203.295 140.462C203.295 140.462 192.759 140.775 193.171 143.716C193.582 146.657 205.767 144.85 205.767 144.85C205.767 144.85 219.069 152.724 223.188 149.11C225.493 150.58 227.798 152.048 230.103 153.517C229.902 144.86 229.701 136.202 229.5 127.545H229.503Z" fill="white"/>
<path d="M230.105 154.139C229.821 154.139 230.042 154.216 223.222 149.869C219.248 152.542 209.682 147.826 205.642 145.497C203.936 145.739 195.699 146.792 193.311 145.006C192.876 144.681 192.621 144.275 192.555 143.802C192.343 142.29 193.935 141.467 195.382 140.99C192.551 140.7 190.179 140.021 190.079 138.567C190.007 137.507 191.182 136.679 192.889 136.04C191.419 135.827 189.817 135.301 189.611 133.835C189.256 131.299 194.39 130.096 196.882 129.569C193.872 129.265 191.128 128.566 190.796 127.038C190.699 126.596 190.796 126.153 191.07 125.76C192.741 123.387 201.568 122.718 207.91 121.77C214.066 120.852 229.092 126.712 229.728 126.962C229.961 127.054 230.117 127.277 230.124 127.528L230.727 153.5C230.734 153.849 230.454 154.138 230.103 154.138L230.105 154.139ZM223.19 148.485C223.472 148.485 223.292 148.435 229.455 152.363L228.889 127.976C226.473 127.057 213.404 122.211 208.095 123.006C203.728 123.656 193.389 124.635 192.091 126.48C191.997 126.614 191.999 126.702 192.015 126.775C192.3 128.089 198.61 128.717 204.328 128.478C204.667 128.461 204.955 128.723 204.977 129.061C204.999 129.399 204.748 129.692 204.409 129.722C201.221 130.004 192.602 131.171 191.023 133.158C190.712 133.551 190.822 133.931 191.231 134.223C192.326 135.007 195.032 135.043 197.638 134.84C199.564 134.5 201.456 134.285 202.767 134.162C203.102 134.131 203.396 134.365 203.443 134.695C203.49 135.024 203.27 135.333 202.943 135.395C202.488 135.482 200.387 135.87 197.987 136.071C194.109 136.771 191.271 137.741 191.323 138.484C191.39 139.466 196.559 140.1 202.391 139.879C202.826 139.854 203.139 139.843 203.278 139.84C203.643 139.821 203.906 140.097 203.92 140.437C203.934 140.778 203.671 141.066 203.329 141.085C203.029 141.101 202.697 141.116 202.341 141.13C199.283 141.313 194.968 141.95 193.958 143.145C193.71 143.438 193.712 143.75 194.059 144.01C195.839 145.343 203.05 144.625 205.678 144.235C205.817 144.213 205.963 144.243 206.086 144.316C209.679 146.442 219.68 151.362 222.78 148.644C222.897 148.541 223.043 148.49 223.191 148.49L223.19 148.485Z" fill="#292C56"/>
</g>
<defs>
<clipPath id="clip0_638_6841">
<rect width="301.546" height="254" fill="white"/>
</clipPath>
</defs>
</svg>
