<svg width="292" height="269" viewBox="0 0 292 269" fill="none" xmlns="http://www.w3.org/2000/svg">
<g clip-path="url(#clip0_638_6775)">
<path d="M109.758 164.731H43.2621C31.3336 186.814 29.7096 203.631 30.6424 215.219C31.1551 221.574 33.7104 237.126 36.5782 269C76.3168 268.848 116.055 268.695 155.792 268.543L109.758 164.731Z" fill="#292C56"/>
<path d="M165.483 105.472L139.253 135.54C139.253 135.54 118.942 99.0744 109.761 90.4386C100.705 81.9182 82.6158 83.6223 82.6419 83.7208C78.9429 83.7593 73.7768 83.8609 67.6147 84.1318C42.7479 85.2294 30.1559 86.036 22.1774 92.4675C19.5713 94.5687 15.7891 98.3309 10.5199 117.559C2.97239 145.1 -7.04422 181.653 9.64859 194.612C12.6796 196.965 18.3244 199.884 28.8136 199.002L25.6425 222.92H67.684C76.8971 222.92 84.4645 215.644 84.8248 206.439C85.1249 198.8 85.4236 191.162 85.7237 183.524C88.0928 190.428 90.4604 197.332 92.8294 204.236C96.019 213.532 105.112 219.475 114.905 218.664L140.794 216.523L117.274 172.04C121.811 176.935 127.089 181.13 133.174 183.839C160.843 196.154 188.832 137.138 188.832 137.138L165.481 105.47L165.483 105.472Z" fill="white"/>
<path d="M67.6825 223.538H25.6411C25.2701 223.538 24.9807 223.212 25.0315 222.841L28.1025 199.675C20.2087 200.214 13.8773 198.676 9.26999 195.1C-7.74916 181.887 2.46602 144.613 9.92422 117.398C15.0672 98.6328 18.7448 94.4426 21.7896 91.9889C29.8959 85.4543 42.3739 84.6307 67.5855 83.5162C77.7484 83.0683 81.8585 83.1668 82.5697 83.0868C83.3147 83.0083 100.902 81.2595 110.183 89.9877C118.698 98.0001 136.313 129.043 139.363 134.474L165.018 105.064C165.269 104.778 165.738 104.779 165.977 105.104L189.327 136.772C189.463 136.955 189.486 137.197 189.387 137.402C189.317 137.549 182.24 152.37 171.862 165.489C157.988 183.024 144.523 189.564 132.924 184.401C128.333 182.359 123.92 179.348 119.759 175.425L141.336 216.235C141.541 216.623 141.285 217.1 140.842 217.137L114.953 219.279C104.864 220.11 95.528 214.009 92.243 204.436L86.2057 186.838L85.436 206.463C85.0604 216.037 77.2604 223.536 67.6795 223.536L67.6825 223.538ZM26.3446 222.306H67.6825C76.6 222.306 83.8597 215.327 84.2091 206.417L85.1081 183.502C85.1343 182.826 86.084 182.682 86.3057 183.327L93.4114 204.039C96.5117 213.078 105.326 218.843 114.855 218.055L139.814 215.99L116.73 172.331C116.394 171.698 117.239 171.1 117.726 171.625C122.61 176.895 127.892 180.816 133.424 183.279C159.165 194.737 185.802 141.92 188.116 137.206L165.441 106.456L139.717 135.945C139.437 136.267 138.923 136.212 138.715 135.841C138.512 135.476 118.346 99.3609 109.339 90.8882C100.893 82.9421 84.5431 84.152 82.8437 84.3013C82.4789 84.4399 79.1169 84.2428 67.641 84.7493C42.7018 85.8499 30.3669 86.6581 22.5639 92.9494C20.4735 94.635 16.582 97.7723 11.1141 117.725C3.74677 144.607 -6.34219 181.423 10.0274 194.13C14.53 197.626 20.8337 199.059 28.7629 198.392C29.1693 198.363 29.4756 198.708 29.4248 199.087L26.3461 222.308L26.3446 222.306Z" fill="#292C56"/>
<path d="M50.5372 84.5078L67.952 110.381L76.9218 83.1562C54.4302 84.1768 60.1905 83.8751 50.5356 84.5063L50.5372 84.5078Z" fill="#60AFBD"/>
<path d="M65.2796 64.6803L63.5048 64.7029C60.4283 64.7421 57.9661 67.2679 58.0053 70.3444L58.1988 85.5274C58.238 88.6039 60.7637 91.0661 63.8402 91.0269L65.615 91.0043C68.6915 90.9651 71.1537 88.4394 71.1145 85.3629L70.921 70.1798C70.8818 67.1034 68.3561 64.6411 65.2796 64.6803Z" fill="white"/>
<path d="M63.7695 91.6426C60.3937 91.6426 57.6275 88.9194 57.5844 85.5344L57.3904 70.3517C57.3473 66.9404 60.0874 64.1296 63.4986 64.0865L65.2719 64.0634C68.7108 64.0249 71.494 66.7819 71.5371 70.1716L71.7311 85.3527C71.7742 88.7639 69.0341 91.5748 65.6229 91.6179L63.7695 91.641V91.6426ZM65.3504 65.2949L63.5124 65.318C60.7801 65.3534 58.5865 67.6039 58.6203 70.3363L58.8143 85.519C58.8497 88.2606 61.1126 90.448 63.8326 90.4111L65.606 90.388C68.3383 90.3526 70.5319 88.102 70.498 85.3697L70.3041 70.1885C70.2702 67.4777 68.0535 65.2964 65.3504 65.2964V65.2949Z" fill="#292C56"/>
<path d="M76.2061 61.049C75.9244 59.054 74.8623 57.2529 73.2567 56.0337C71.6989 54.85 69.4745 53.6262 66.6944 53.3183C65.426 53.1767 62.6244 52.8811 59.715 54.499C59.5672 54.5821 56.7271 56.2046 55.3755 59.0694C54.8537 60.1762 54.5904 61.4046 54.5612 62.6961C53.3867 62.7007 52.343 63.1979 51.8196 64.1323C50.488 66.5075 53.2958 69.734 56.3976 69.497C57.9924 72.374 59.8273 74.1197 61.9794 75.3081C64.313 76.5965 68.3354 78.3283 72.1976 77.6556C77.6162 76.712 77.4499 69.8249 76.2077 61.049H76.2061Z" fill="white"/>
<path d="M61.6807 75.8471C59.5071 74.6464 57.6783 72.9331 56.0451 70.1238C55.1769 70.1161 54.2779 69.8713 53.4728 69.4203C49.7799 67.3498 50.1216 62.6286 53.9731 62.1191C54.0624 60.9199 54.3456 59.8085 54.8198 58.8064C56.2652 55.74 59.2885 54.0313 59.4163 53.9605C62.5212 52.2333 65.4952 52.5643 66.7636 52.7059C69.1958 52.9753 71.5064 53.9312 73.6307 55.5429C75.3794 56.8714 76.5109 58.7956 76.8172 60.963C77.9717 69.117 78.5736 77.171 72.3038 78.2624C68.714 78.8858 64.881 77.6127 61.6822 75.8471H61.6807ZM58.8344 71.9633C59.7703 73.0809 60.9295 74.0245 62.2764 74.7696C64.3284 75.9025 68.3338 77.7051 72.0914 77.0493C76.771 76.235 76.9019 70.3562 75.5965 61.1354C75.3363 59.2928 74.3727 57.655 72.8857 56.5235C70.9415 55.0473 68.8372 54.1745 66.6282 53.9297C65.4737 53.8019 62.7752 53.5018 60.0151 55.038C59.9874 55.0534 57.2119 56.622 55.9327 59.3329C55.4601 60.3334 55.2061 61.4695 55.1769 62.7117C55.1692 63.0442 54.8967 63.3106 54.5642 63.3121C51.5271 63.3244 51.2377 66.7556 54.0762 68.3473C54.7967 68.7507 55.6048 68.9385 56.3514 68.8846C57.1042 68.8261 56.8101 69.5465 58.8359 71.9648L58.8344 71.9633Z" fill="#292C56"/>
<path d="M61.9792 75.3086C61.9792 75.3086 65.7599 81.8062 71.0661 81.4368L71.0199 77.7993C71.0199 77.7993 65.5952 78.258 61.9808 75.3086H61.9792Z" fill="#292C56"/>
<path d="M52.1365 84.7383C57.4089 93.2863 62.6812 101.833 67.9519 110.381L55.1214 104.784L58.4264 101.159L51.4854 101.052L47.4446 85.2755C49.0086 85.097 50.5726 84.9168 52.135 84.7383H52.1365Z" fill="white"/>
<path d="M67.9534 110.997C67.7549 110.997 67.9304 111.043 54.8766 105.347C54.4887 105.178 54.3855 104.678 54.6672 104.368L57.0532 101.753L51.4777 101.667C51.2006 101.662 50.9605 101.473 50.8912 101.203L46.8504 85.4265C46.7595 85.0679 47.0028 84.7046 47.3768 84.6615L52.0688 84.1242C52.3089 84.0965 52.5383 84.2104 52.663 84.4136L68.4784 110.056C68.7308 110.466 68.4353 110.995 67.9534 110.995V110.997ZM56.1573 104.564L66.3971 109.031L51.8194 85.3957L48.2189 85.8083L51.9687 100.445L58.4402 100.545C58.9697 100.554 59.2422 101.183 58.8851 101.576L56.1589 104.565L56.1573 104.564Z" fill="#292C56"/>
<path d="M76.2339 83.7261L67.9521 110.382L77.8687 101.212L75.3103 97.5603L80.7842 98.5116C80.7612 93.6426 80.7365 88.7736 80.7134 83.9046C79.2203 83.8461 77.7286 83.7861 76.2354 83.7276L76.2339 83.7261Z" fill="white"/>
<path d="M67.3655 110.2L75.6458 83.5444C75.7289 83.278 75.9613 83.101 76.2584 83.1118L80.7364 83.2888C81.0658 83.3011 81.326 83.5721 81.3275 83.9015L81.3984 98.5085C81.3984 98.8979 81.0489 99.1812 80.6779 99.1181L76.6648 98.4207L78.3735 100.859C78.5505 101.112 78.5136 101.455 78.2873 101.664L68.3723 110.834C67.9197 111.253 67.1777 110.806 67.3655 110.2ZM76.6818 84.3602L69.2236 108.368L77.0558 101.125L74.8053 97.9143C74.4912 97.4663 74.8776 96.8598 75.4149 96.9537L80.1638 97.7788L80.0991 84.4957L76.6818 84.3602Z" fill="#292C56"/>
<path d="M52.2967 63.5216C52.2967 63.5216 53.4697 62.1885 55.2292 63.5216C56.9887 64.8547 65.0657 60.5629 67.4902 54.5117C67.4902 54.5117 73.7277 55.7186 76.2861 63.7648C79.7666 59.5577 80.6887 54.4271 78.6136 51.0282C77.3021 48.8807 75.1224 47.9602 74.2772 47.6169C69.162 45.5342 64.2883 48.2896 63.5433 48.7283C53.9269 46.9827 50.6142 48.6514 49.3627 50.4878C46.4133 54.8119 51.1761 65.5043 51.1761 65.5058L52.2952 63.5231L52.2967 63.5216Z" fill="#292C56"/>
<path d="M43.7854 54.0855C49.2427 54.0855 53.6666 49.6616 53.6666 44.2044C53.6666 38.7472 49.2427 34.3232 43.7854 34.3232C38.3282 34.3232 33.9043 38.7472 33.9043 44.2044C33.9043 49.6616 38.3282 54.0855 43.7854 54.0855Z" fill="#292C56"/>
<path d="M196.273 34.8896C183.736 34.8896 173.572 47.3323 173.572 62.6797V239.307H260.915C270.282 239.307 277.876 230.011 277.876 218.544V64.019C277.203 52.3521 281.367 39.9588 291.795 34.8896H196.273Z" fill="#DCE7EA"/>
<path d="M206.836 84.6833V52.9556H211.071V84.6833H206.836ZM209.471 73.272V69.5114H217.945C220.639 69.5114 222.553 68.3091 223.563 66.4219C224.603 64.4777 224.603 61.753 223.563 59.8088C222.53 57.88 220.593 56.6747 217.945 56.6747H209.471V52.9571H217.165C224.029 52.9571 228.664 55.8773 228.664 62.769C228.664 64.9733 228.522 67.0884 227.216 69.0357C225.037 72.2961 221.067 73.272 217.165 73.272H209.471ZM216.68 99.8737L226.535 85.3745L226.38 86.4074L217.147 72.3207H222.613L229.267 82.6914H229.989L236.288 72.3207H241.395L232.674 86.0472L232.83 85.1174L243.151 99.8737H237.68L229.942 88.6779H229.22L221.792 99.8737H216.682H216.68Z" fill="#60AFBD"/>
<path d="M241.675 221.738V195.398H153.429V218.159C153.429 229.839 163.297 239.307 175.468 239.307H259.984C249.872 239.307 241.675 231.441 241.675 221.738Z" fill="#60AFBD"/>
<path d="M267.245 113.519H206.108C205.598 113.519 205.184 113.105 205.184 112.595C205.184 112.085 205.598 111.671 206.108 111.671H267.245C267.755 111.671 268.169 112.085 268.169 112.595C268.169 113.105 267.755 113.519 267.245 113.519Z" fill="#292C56"/>
<path d="M197.203 113.519H185.861C185.351 113.519 184.937 113.105 184.937 112.595C184.937 112.085 185.351 111.671 185.861 111.671H197.203C197.712 111.671 198.126 112.085 198.126 112.595C198.126 113.105 197.712 113.519 197.203 113.519Z" fill="#292C56"/>
<path d="M267.245 124.203H206.108C205.598 124.203 205.184 123.789 205.184 123.28C205.184 122.77 205.598 122.356 206.108 122.356H267.245C267.755 122.356 268.169 122.77 268.169 123.28C268.169 123.789 267.755 124.203 267.245 124.203Z" fill="#292C56"/>
<path d="M197.203 124.203H185.861C185.351 124.203 184.937 123.789 184.937 123.28C184.937 122.77 185.351 122.356 185.861 122.356H197.203C197.712 122.356 198.126 122.77 198.126 123.28C198.126 123.789 197.712 124.203 197.203 124.203Z" fill="#292C56"/>
<path d="M267.245 134.888H206.108C205.598 134.888 205.184 134.474 205.184 133.964C205.184 133.455 205.598 133.041 206.108 133.041H267.245C267.755 133.041 268.169 133.455 268.169 133.964C268.169 134.474 267.755 134.888 267.245 134.888Z" fill="#292C56"/>
<path d="M197.203 134.888H185.861C185.351 134.888 184.937 134.474 184.937 133.964C184.937 133.455 185.351 133.041 185.861 133.041H197.203C197.712 133.041 198.126 133.455 198.126 133.964C198.126 134.474 197.712 134.888 197.203 134.888Z" fill="#292C56"/>
<path d="M267.245 145.573H206.108C205.598 145.573 205.184 145.159 205.184 144.649C205.184 144.14 205.598 143.726 206.108 143.726H267.245C267.755 143.726 268.169 144.14 268.169 144.649C268.169 145.159 267.755 145.573 267.245 145.573Z" fill="#292C56"/>
<path d="M197.203 145.571H185.861C185.351 145.571 184.937 145.157 184.937 144.647C184.937 144.138 185.351 143.724 185.861 143.724H197.203C197.712 143.724 198.126 144.138 198.126 144.647C198.126 145.157 197.712 145.571 197.203 145.571Z" fill="#292C56"/>
<path d="M267.245 156.256H206.108C205.598 156.256 205.184 155.842 205.184 155.332C205.184 154.823 205.598 154.409 206.108 154.409H267.245C267.755 154.409 268.169 154.823 268.169 155.332C268.169 155.842 267.755 156.256 267.245 156.256Z" fill="#292C56"/>
<path d="M197.203 156.256H185.861C185.351 156.256 184.937 155.842 184.937 155.332C184.937 154.823 185.351 154.409 185.861 154.409H197.203C197.712 154.409 198.126 154.823 198.126 155.332C198.126 155.842 197.712 156.256 197.203 156.256Z" fill="#292C56"/>
<path d="M267.245 166.94H206.108C205.598 166.94 205.184 166.526 205.184 166.017C205.184 165.507 205.598 165.093 206.108 165.093H267.245C267.755 165.093 268.169 165.507 268.169 166.017C268.169 166.526 267.755 166.94 267.245 166.94Z" fill="#292C56"/>
<path d="M197.203 166.94H185.861C185.351 166.94 184.937 166.526 184.937 166.017C184.937 165.507 185.351 165.093 185.861 165.093H197.203C197.712 165.093 198.126 165.507 198.126 166.017C198.126 166.526 197.712 166.94 197.203 166.94Z" fill="#292C56"/>
<path d="M267.245 177.625H206.108C205.598 177.625 205.184 177.211 205.184 176.701C205.184 176.192 205.598 175.778 206.108 175.778H267.245C267.755 175.778 268.169 176.192 268.169 176.701C268.169 177.211 267.755 177.625 267.245 177.625Z" fill="#292C56"/>
<path d="M197.203 177.624H185.861C185.351 177.624 184.937 177.21 184.937 176.7C184.937 176.19 185.351 175.776 185.861 175.776H197.203C197.712 175.776 198.126 176.19 198.126 176.7C198.126 177.21 197.712 177.624 197.203 177.624Z" fill="#292C56"/>
<path d="M267.245 188.308H206.108C205.598 188.308 205.184 187.894 205.184 187.385C205.184 186.875 205.598 186.461 206.108 186.461H267.245C267.755 186.461 268.169 186.875 268.169 187.385C268.169 187.894 267.755 188.308 267.245 188.308Z" fill="#292C56"/>
<path d="M197.203 188.308H185.861C185.351 188.308 184.937 187.894 184.937 187.385C184.937 186.875 185.351 186.461 185.861 186.461H197.203C197.712 186.461 198.126 186.875 198.126 187.385C198.126 187.894 197.712 188.308 197.203 188.308Z" fill="#292C56"/>
<path d="M143.068 16.9226C134.617 14.0501 125.378 14.9276 116.624 15.2431C107.982 15.5556 96.5395 14.1209 90.4683 21.7331C87.996 24.8318 86.743 28.5724 86.4521 32.4378C85.6362 37.0974 86.6091 41.4969 88.9843 45.587C91.4457 50.7962 95.465 54.7924 100.376 57.2738C102.523 58.359 104.6 58.8501 106.713 59.0194C105.953 61.2961 104.835 63.3928 103.37 65.3493C102.478 66.5377 103.505 68.0278 104.931 67.6753C109.559 66.5284 113.225 63.9916 116.169 60.2401C119.842 60.5526 123.548 60.5649 127.156 60.4572C135.961 60.194 145.217 58.533 151.93 52.3848C164.305 41.052 158.049 22.0132 143.068 16.921V16.9226Z" fill="white"/>
<path d="M102.877 64.9811C104.167 63.2601 105.151 61.4776 105.871 59.5564C103.781 59.3071 101.927 58.7498 100.098 57.8247C95.2479 55.374 91.0131 51.3178 88.4286 45.8515C86.0179 41.7091 85.0035 37.1495 85.8455 32.3329C86.1565 28.172 87.5911 24.3528 89.9864 21.3495C95.2587 14.7411 104.275 14.7118 112.23 14.6872C123.367 14.6518 133.512 13.0231 143.267 16.3389C158.791 21.6158 164.998 41.2535 152.346 52.8402C146.584 58.1171 138.586 60.7325 127.174 61.0727C123.035 61.1959 119.616 61.1343 116.446 60.8803C113.469 64.5624 109.749 67.1162 105.078 68.2723C103.085 68.7664 101.646 66.6236 102.877 64.9796V64.9811ZM116.645 15.8586C107.966 16.1711 96.8011 14.7811 90.9485 22.1177C88.7087 24.927 87.3649 28.5122 87.0647 32.4853C86.3273 36.7339 87.0108 40.9671 89.5153 45.2789C91.986 50.4727 95.9314 54.3396 100.653 56.7256C102.563 57.6923 104.504 58.2264 106.762 58.4081C107.161 58.4404 107.424 58.8376 107.296 59.2162C106.528 61.516 105.372 63.7035 103.861 65.72C103.311 66.4543 103.925 67.2886 104.781 67.0793C109.265 65.9694 112.829 63.4926 115.684 59.8612C116.199 59.2116 116.662 60.1553 127.136 59.8443C138.236 59.5133 145.982 56.9996 151.513 51.9335C163.466 40.9871 157.513 22.484 142.87 17.5058C134.551 14.678 125.386 15.5415 116.645 15.8586Z" fill="#292C56"/>
<path d="M121.003 49.2611C113.794 53.2465 104.735 50.6388 100.751 43.43C96.8103 36.3012 99.3733 27.2452 106.465 23.2429L145.145 1.85807C152.337 -2.11809 161.422 0.49882 165.396 7.68917C169.337 14.8179 166.773 23.874 159.681 27.8763L121.003 49.2611Z" fill="#60AFBD"/>
<path d="M101.493 43.0207C105.249 49.8139 113.8 52.2769 120.593 48.5208L139.874 37.8608L126.274 13.2603L106.993 23.9203C100.2 27.6764 97.7369 36.2275 101.493 43.0207Z" fill="#DCE7EA"/>
<path d="M165.482 105.473C171.726 99.0843 176.623 94.1522 179.565 91.0565C180.537 90.0328 182.95 87.4713 185.082 88.0332C188.34 88.8922 185.567 94.8187 183.496 97.4941C182.605 98.6456 180.747 100.665 177.368 102.074C177.697 103.311 177.891 105.18 177.707 107.428C177.465 110.363 176.4 113.813 173.11 115.877L165.481 105.473H165.482Z" fill="white"/>
<path d="M172.614 116.242L164.985 105.837C164.807 105.594 164.831 105.259 165.042 105.043C171.303 98.6362 176.175 93.7302 179.12 90.633C180.228 89.4662 182.774 86.7862 185.24 87.4389C189.115 88.4533 186.443 94.6954 183.984 97.8711C182.505 99.7845 180.473 101.353 178.088 102.434C178.301 103.441 178.515 105.138 178.322 107.478C177.99 111.519 176.301 114.604 173.44 116.4C173.167 116.571 172.807 116.504 172.616 116.243L172.614 116.242ZM166.288 105.529L173.259 115.037C175.521 113.406 176.811 110.833 177.094 107.377C177.253 105.463 177.136 103.587 176.774 102.232C176.695 101.935 176.848 101.624 177.132 101.506C179.529 100.507 181.561 98.9887 183.01 97.1168C185.122 94.3875 186.737 90.1405 185.574 88.9598C185.36 88.7427 185.089 88.6719 184.928 88.6288C183.165 88.1624 180.892 90.5561 180.036 91.4566C177.163 94.4799 172.166 99.5198 166.289 105.529H166.288Z" fill="#292C56"/>
<path d="M60.2937 146.279L65.2104 143.848C65.2104 143.848 68.8556 139.158 71.9774 137.519C75.0993 135.879 76.965 133.336 78.3211 133.562C79.6773 133.789 78.7737 138.875 74.9299 141.475C74.9299 141.475 81.5415 139.158 84.3108 136.841C87.0801 134.524 90.753 130.454 92.4494 131.417C94.1442 132.377 86.7984 140.911 86.7984 140.911C86.7984 140.911 94.1458 133.282 96.0669 134.695C97.988 136.108 89.5107 143.625 89.5107 143.625C89.5107 143.625 96.5179 137.717 98.4406 138.778C100.362 139.838 90.6422 147.694 90.6422 147.694C90.6422 147.694 97.4184 143.964 98.693 145.773C99.9676 147.581 88.7395 154.872 83.2194 156.285C77.7008 157.698 71.4279 157.867 71.4279 157.867C69.4159 159.739 67.4025 161.613 65.3905 163.484C63.6926 157.75 61.9932 152.016 60.2952 146.282L60.2937 146.279Z" fill="white"/>
<path d="M64.7978 163.657L59.7025 146.454C59.6178 146.167 59.7518 145.86 60.0196 145.728L64.8116 143.359C65.4058 142.611 68.7231 138.531 71.6895 136.975C74.8606 135.309 76.6739 132.665 78.4211 132.957C78.6674 132.999 79.2616 133.193 79.4617 134.107C79.7465 135.414 79.12 137.76 77.5837 139.783C82.8406 137.585 83.8243 136.498 85.8516 134.649C88.5224 132.214 91.0454 129.916 92.751 130.881C93.0419 131.045 93.2344 131.329 93.2959 131.677C93.4499 132.562 92.6094 134.173 91.4872 135.854C93.4299 134.412 95.3802 133.425 96.4301 134.198C97.8694 135.257 96.0422 137.663 94.8753 139.069C96.4193 138.237 97.8755 137.763 98.736 138.237C99.067 138.421 99.2671 138.728 99.301 139.104C99.4164 140.426 96.8026 143.117 94.3858 145.305C96.3546 144.612 98.3912 144.279 99.1932 145.417C99.3626 145.657 99.518 146.071 99.2964 146.673C98.2434 149.529 88.233 155.634 83.3702 156.879C78.3811 158.157 72.884 158.428 71.6772 158.472L65.8076 163.932C65.4782 164.24 64.9302 164.099 64.7978 163.657ZM61.031 146.601L65.6968 162.353L71.0076 157.413C71.1168 157.312 71.26 157.253 71.4109 157.248C71.4724 157.247 77.6822 157.064 83.0669 155.684C88.7302 154.234 98.3666 147.507 98.1772 146.096C97.6262 145.328 93.9178 146.593 90.9392 148.231C90.6606 148.385 90.308 148.3 90.131 148.035C89.9524 147.771 90.0079 147.413 90.2542 147.213C94.4582 143.816 97.9648 140.252 98.0741 139.284C97.0304 138.921 93.062 141.433 89.9078 144.093C89.6507 144.31 89.2659 144.279 89.0442 144.025C88.8241 143.77 88.8487 143.385 89.1027 143.162C91.892 140.688 95.7943 136.606 95.7343 135.279C95.7312 135.209 95.7174 135.2 95.702 135.189C94.9153 134.611 90.9592 137.478 87.2416 141.338C87.0092 141.578 86.629 141.59 86.3842 141.365C86.1379 141.141 86.1148 140.76 86.3319 140.508C89.6246 136.683 92.223 132.805 92.0937 131.924C90.8237 131.396 86.8937 135.483 84.7079 137.312C81.8847 139.674 75.4101 141.96 75.1361 142.055C74.4542 142.289 73.9954 141.364 74.5866 140.964C76.8971 139.401 78.1225 136.838 78.2841 135.117C78.3457 134.461 78.2148 134.186 78.1763 134.147C77.3374 134.019 75.1392 136.553 72.2652 138.062C69.2958 139.621 65.7337 144.178 65.6983 144.224C65.5736 144.384 65.8676 144.209 61.0325 146.599L61.031 146.601Z" fill="#292C56"/>
<path d="M28.6491 198.411C43.0698 194.432 56.7501 188.172 69.1896 179.862L59.8781 147.074L25.8613 158.814L10.4431 168.836C10.1583 169.022 9.77653 168.94 9.59026 168.656C9.40554 168.371 9.48559 167.989 9.77191 167.804L25.2532 157.741L60.092 145.698C60.4184 145.584 60.7863 145.765 60.8848 146.112L70.4966 179.956C70.5689 180.211 70.4689 180.487 70.2487 180.635C58.057 188.835 44.1935 195.4 28.977 199.598C28.1842 199.82 27.8717 198.625 28.6506 198.411H28.6491Z" fill="#292C56"/>
<path d="M31.4167 157.007C31.135 157.007 30.881 156.813 30.8164 156.527C27.1927 140.385 24.8052 103.707 24.7806 103.339C24.759 103 25.0161 102.706 25.3547 102.685C25.698 102.661 25.9874 102.92 26.009 103.26C26.0321 103.628 28.415 140.21 32.0171 156.259C32.1033 156.644 31.8108 157.01 31.4152 157.01L31.4167 157.007Z" fill="#292C56"/>
<path d="M117.275 172.658C117.018 172.658 116.777 172.496 116.691 172.239C107.184 144.135 107.213 144.287 107.217 144.12C107.598 121.248 101.873 97.4371 101.815 97.2C101.735 96.869 101.936 96.5365 102.267 96.4565C102.597 96.3764 102.931 96.5781 103.011 96.9091C103.069 97.1477 108.813 121.032 108.448 144.033L117.855 171.845C117.99 172.247 117.69 172.658 117.272 172.658H117.275Z" fill="#292C56"/>
<path d="M133.279 157.007C132.957 157.007 132.687 156.758 132.665 156.431C131.983 145.875 138.459 135.639 138.735 135.208C138.918 134.922 139.298 134.839 139.584 135.022C139.871 135.205 139.954 135.585 139.771 135.873C139.705 135.975 133.238 146.205 133.893 156.353C133.917 156.705 133.636 157.009 133.278 157.009L133.279 157.007Z" fill="#292C56"/>
<path d="M69.085 120.036C70.5005 120.036 71.648 118.889 71.648 117.473C71.648 116.058 70.5005 114.91 69.085 114.91C67.6695 114.91 66.522 116.058 66.522 117.473C66.522 118.889 67.6695 120.036 69.085 120.036Z" fill="white"/>
<path d="M69.085 120.651C67.3317 120.651 65.9062 119.225 65.9062 117.472C65.9062 115.718 67.3317 114.293 69.085 114.293C70.8384 114.293 72.2638 115.718 72.2638 117.472C72.2638 119.225 70.8384 120.651 69.085 120.651ZM69.085 115.526C68.0121 115.526 67.1377 116.399 67.1377 117.473C67.1377 118.548 68.0121 119.421 69.085 119.421C70.158 119.421 71.0323 118.546 71.0323 117.473C71.0323 116.4 70.158 115.526 69.085 115.526Z" fill="#292C56"/>
</g>
<defs>
<clipPath id="clip0_638_6775">
<rect width="291.795" height="269" fill="white"/>
</clipPath>
</defs>
</svg>
