<svg width="50" height="50" viewBox="0 0 50 50" fill="none" xmlns="http://www.w3.org/2000/svg">
<mask id="mask0_943_7145" style="mask-type:alpha" maskUnits="userSpaceOnUse" x="0" y="0" width="50" height="50">
<rect width="50" height="50" fill="#D9D9D9"/>
</mask>
<g mask="url(#mask0_943_7145)">
<path d="M25.7292 34.375C24.3403 35.7639 22.6562 36.4584 20.6771 36.4584C18.6979 36.4584 17.0139 35.7639 15.625 34.375C14.2361 32.9862 13.5417 31.3108 13.5417 29.349C13.5417 27.3872 14.2361 25.7118 15.625 24.323L24.2708 15.625C25.6597 14.2362 27.3437 13.5417 29.3229 13.5417C31.3021 13.5417 32.9861 14.2362 34.375 15.625C35.7639 17.0139 36.4583 18.6893 36.4583 20.6511C36.4583 22.6129 35.7639 24.2882 34.375 25.6771L25.7292 34.375ZM18.5417 31.4063C19.3403 32.2049 20.1649 32.4914 21.0156 32.2657C21.8663 32.04 22.4479 31.7709 22.7604 31.4584L25.625 28.5417L21.4583 24.375L18.5417 27.2396C17.9514 27.8299 17.6562 28.5243 17.6562 29.323C17.6562 30.1216 17.9514 30.816 18.5417 31.4063ZM31.4583 18.5938C30.6597 17.7952 29.8351 17.5087 28.9844 17.7344C28.1337 17.9601 27.5521 18.2292 27.2396 18.5417L24.375 21.4584L28.5417 25.625L31.4583 22.7605C32.0486 22.1702 32.3438 21.4757 32.3438 20.6771C32.3438 19.8785 32.0486 19.1841 31.4583 18.5938ZM10.4167 43.75C9.27083 43.75 8.28993 43.3421 7.47396 42.5261C6.65799 41.7101 6.25 40.7292 6.25 39.5834V10.4167C6.25 9.27087 6.65799 8.28997 7.47396 7.474C8.28993 6.65803 9.27083 6.25004 10.4167 6.25004H19.1667C19.6181 5.00004 20.3733 3.9931 21.4323 3.22921C22.4913 2.46532 23.6806 2.08337 25 2.08337C26.3194 2.08337 27.5087 2.46532 28.5677 3.22921C29.6267 3.9931 30.3819 5.00004 30.8333 6.25004H39.5833C40.7292 6.25004 41.7101 6.65803 42.526 7.474C43.342 8.28997 43.75 9.27087 43.75 10.4167V39.5834C43.75 40.7292 43.342 41.7101 42.526 42.5261C41.7101 43.3421 40.7292 43.75 39.5833 43.75H10.4167ZM10.4167 39.5834H39.5833V10.4167H10.4167V39.5834ZM25 8.85421C25.4514 8.85421 25.8247 8.70664 26.1198 8.4115C26.4149 8.11636 26.5625 7.7431 26.5625 7.29171C26.5625 6.84032 26.4149 6.46705 26.1198 6.17192C25.8247 5.87678 25.4514 5.72921 25 5.72921C24.5486 5.72921 24.1753 5.87678 23.8802 6.17192C23.5851 6.46705 23.4375 6.84032 23.4375 7.29171C23.4375 7.7431 23.5851 8.11636 23.8802 8.4115C24.1753 8.70664 24.5486 8.85421 25 8.85421Z" fill="#00A39B"/>
</g>
</svg>
