<?xml version="1.0" encoding="UTF-8"?>
<svg id="Layer_2" xmlns="http://www.w3.org/2000/svg" viewBox="0 0 60.48 60.3">
  <defs>
    <style>
      .cls-1 {
        fill: #3f3318;
        opacity: .17;
      }

      .cls-2 {
        fill: #89ccc8;
      }

      .cls-3 {
        fill: #ffb057;
      }
    </style>
  </defs>
  <g id="Capsule">
    <g id="Capsule-2" data-name="Capsule">
      <path class="cls-2" d="M55.77,4.71h0c-6.28-6.28-16.56-6.28-22.84,0l-10.88,10.88c-.55.55-.55,1.43,0,1.98l15.19,15.19-2.12-2.12c-.55-.55-.55-1.43,0-1.98L56.05,7.73c.65-.65,1.74-.52,2.2.27,3.55,6.24,2.53,14.53-2.98,20.05l-5.07,5.07,5.57-5.57c6.28-6.28,6.28-16.56,0-22.84Z"/>
      <path class="cls-3" d="M7.74,56.03l22.74-22.74c.55-.55,1.43-.55,1.98,0l-13.07-13.07c-.27-.27-.63-.41-.99-.41s-.72.14-.99.41l-11.7,11.7c-.42.39-.8.78-1.17,1.19-.1.11-.2.22-.3.33-1.89,2.17-3.12,4.57-3.75,7.03-.06.23-.12.46-.17.69-.02.09-.03.19-.05.28-.99,5.18.65,10.51,4.45,14.3.41.41.84.79,1.28,1.14.14.11.29.21.43.31.31.23.62.47.95.68.14.09.28.16.42.25.35.21.7.42,1.06.6.09.04.18.08.27.12h.08c-.4-.19-.8-.4-1.19-.62-.79-.45-.92-1.55-.27-2.2Z"/>
      <path class="cls-2" d="M58.25,8c-.45-.79-1.55-.92-2.2-.27l-20.94,20.94c-.55.55-.55,1.43,0,1.98l2.12,2.12,5.67,5.67c.14.14.29.24.46.31.34.14.72.14,1.05,0,.17-.07.33-.17.46-.31l5.32-5.32,5.07-5.07c5.51-5.51,6.53-13.81,2.98-20.05Z"/>
      <path class="cls-1" d="M58.25,8c-.45-.79-1.55-.92-2.2-.27l-20.94,20.94c-.55.55-.55,1.43,0,1.98l2.12,2.12,5.67,5.67c.14.14.29.24.46.31.34.14.72.14,1.05,0,.17-.07.33-.17.46-.31l5.32-5.32,5.07-5.07c5.51-5.51,6.53-13.81,2.98-20.05Z"/>
      <path class="cls-3" d="M32.46,33.29c-.55-.55-1.43-.55-1.98,0L7.74,56.03c-.65.65-.52,1.75.27,2.2.39.22.79.42,1.19.61,5.3,2.44,11.77,1.82,16.77-1.81.31-.22.61-.46.9-.71.08-.07.16-.13.24-.2.32-.28.64-.57.95-.87l12.19-12.19c.14-.14.24-.29.31-.46.21-.51.1-1.11-.31-1.52l-7.79-7.79Z"/>
      <path class="cls-1" d="M32.46,33.29c-.55-.55-1.43-.55-1.98,0L7.74,56.03c-.65.65-.52,1.75.27,2.2.39.22.79.42,1.19.61,5.3,2.44,11.77,1.82,16.77-1.81.31-.22.61-.46.9-.71.08-.07.16-.13.24-.2.32-.28.64-.57.95-.87l12.19-12.19c.14-.14.24-.29.31-.46.21-.51.1-1.11-.31-1.52l-7.79-7.79Z"/>
    </g>
  </g>
</svg>