<?xml version="1.0" encoding="UTF-8"?>
<svg id="Layer_2" xmlns="http://www.w3.org/2000/svg" viewBox="0 0 19.92 63.53">
  <defs>
    <style>
      .cls-1 {
        fill: #fdc26a;
      }

      .cls-2 {
        opacity: .11;
      }

      .cls-2, .cls-3 {
        fill: #19423f;
      }

      .cls-3 {
        opacity: .22;
      }

      .cls-4 {
        fill: #00a39b;
      }

      .cls-5 {
        fill: #3f3318;
        opacity: .17;
      }

      .cls-6 {
        fill: #89ccc8;
      }

      .cls-7 {
        fill: #ffb057;
      }
    </style>
  </defs>
  <g id="Dropper">
    <g id="Dropper-2" data-name="Dropper">
      <path class="cls-6" d="M12.38,29.87h0s4.01,0,4.01,0l-.19-1.32c-.05-.38-.4-.68-.77-.68H4.49c-.37,0-.72.31-.77.68l-.19,1.32h8.85Z"/>
      <path class="cls-2" d="M12.38,29.87h0s4.01,0,4.01,0l-.19-1.32c-.05-.38-.4-.68-.77-.68h-4.68.96c-.37,0-.72.31-.77.68l-.19,1.32h1.63Z"/>
      <path class="cls-4" d="M12.38,31.46v-1.6H2.01c-.23,0-.43.19-.43.43v.74c0,.23.19.43.43.43h10.37Z"/>
      <path class="cls-6" d="M9.88,46.58l1.2-13.61.09-.59h-4.03c-.15,0-.26.13-.24.28l2.15,14.24c.02.15.08.27.14.37.31-.07.62-.29.68-.69Z"/>
      <path class="cls-7" d="M3.13,0C1.41,0,0,1.41,0,3.13v.23h13.02V0H3.13Z"/>
      <path class="cls-7" d="M9.08,26.28v-1.38c0-.59.37-1.1.9-1.34,1.38-.63,2.47-1.78,3.04-3.19H.44c.57,1.41,1.66,2.56,3.04,3.19.54.24.9.75.9,1.34v1.38c0,.38.31.68.68.68h3.33c.38,0,.68-.31.68-.68Z"/>
      <path class="cls-1" d="M13.02,18.19V5.36H0v12.83c0,.06.01.12.01.18h19.89s-6.88,0-6.88,0c0-.06,0-.12,0-.18Z"/>
      <path class="cls-4" d="M7.11,62.21c.08.04.15.08.23.11,2.52.92,4.82-1.45,4.82-4.5,0-1.08-.33-1.95-.84-3.05,0,0,0,0,0,0-.36-.7-.74-1.5-1.12-2.48-.08-.22-.39-.21-.48,0-1.91,4.95-3.87,5.77-3.41,8.21.18.98.75,1.85,1.56,2.4-.28-.2-.54-.43-.76-.69Z"/>
      <path class="cls-1" d="M13.02,18.19c0,.06,0,.12,0,.18h6.88c0-.06.01-.12.01-.18h0V5.36h-6.9v12.83Z"/>
      <path class="cls-5" d="M13.02,18.19c0,.06,0,.12,0,.18h6.88c0-.06.01-.12.01-.18h0V5.36h-6.9v12.83Z"/>
      <path class="cls-7" d="M9.98,23.56c-.54.24-.9.75-.9,1.34v1.38c0,.38-.31.68-.68.68h6.46c.38,0,.68-.31.68-.68v-1.38c0-.15.02-.29.07-.42.09-.27.25-.51.47-.69.11-.09.23-.17.37-.23,1.04-.47,1.91-1.24,2.52-2.18.2-.32.38-.65.52-1h-6.46c-.57,1.41-1.66,2.56-3.04,3.19Z"/>
      <path class="cls-5" d="M9.98,23.56c-.54.24-.9.75-.9,1.34v1.38c0,.38-.31.68-.68.68h6.46c.38,0,.68-.31.68-.68v-1.38c0-.15.02-.29.07-.42.09-.27.25-.51.47-.69.11-.09.23-.17.37-.23,1.04-.47,1.91-1.24,2.52-2.18.2-.32.38-.65.52-1h-6.46c-.57,1.41-1.66,2.56-3.04,3.19Z"/>
      <path class="cls-7" d="M17.42.06c-.2-.04-.41-.06-.63-.06h-3.78v3.36h6.9v-.23c0-1.5-1.08-2.77-2.5-3.06Z"/>
      <path class="cls-5" d="M17.42.06c-.2-.04-.41-.06-.63-.06h-3.78v3.36h6.9v-.23c0-1.5-1.08-2.77-2.5-3.06Z"/>
      <path class="cls-6" d="M12.78,32.38h-1.61l-.09.59-1.2,13.61c-.06.4-.38.62-.68.69.05.08.11.15.18.21.02.02.05.03.08.05.05.03.11.07.16.09.05.02.1.03.15.04.04,0,.09.02.13.02.05,0,.09,0,.14,0,.06,0,.11-.01.16-.03.03,0,.07-.02.1-.03.07-.03.13-.06.19-.1.02-.01.04-.02.06-.04.07-.06.12-.12.17-.2,0-.01.02-.02.03-.04.05-.1.09-.21.11-.33l2.15-14.24c.02-.14-.09-.27-.24-.27Z"/>
      <path class="cls-2" d="M12.78,32.38h-1.61l-.09.59-1.2,13.61c-.06.4-.38.62-.68.69.05.08.11.15.18.21.02.02.05.03.08.05.05.03.11.07.16.09.05.02.1.03.15.04.04,0,.09.02.13.02.05,0,.09,0,.14,0,.06,0,.11-.01.16-.03.03,0,.07-.02.1-.03.07-.03.13-.06.19-.1.02-.01.04-.02.06-.04.07-.06.12-.12.17-.2,0-.01.02-.02.03-.04.05-.1.09-.21.11-.33l2.15-14.24c.02-.14-.09-.27-.24-.27Z"/>
      <path class="cls-4" d="M17.91,29.87h-5.53v1.6h5.53c.23,0,.43-.19.43-.43v-.74c0-.06-.01-.11-.03-.17-.07-.15-.22-.26-.39-.26Z"/>
      <path class="cls-2" d="M17.91,29.87h-5.53v1.6h5.53c.23,0,.43-.19.43-.43v-.74c0-.06-.01-.11-.03-.17-.07-.15-.22-.26-.39-.26Z"/>
      <path class="cls-4" d="M13.61,59.21c-.03-.16-.07-.31-.12-.46,0-.03-.02-.05-.03-.08-.05-.13-.1-.26-.16-.4-.02-.04-.04-.08-.06-.12-.07-.14-.15-.29-.23-.43-.05-.09-.1-.17-.15-.26-.03-.05-.06-.1-.09-.14-.4-.68-.91-1.48-1.46-2.55,0,0,0,0,0,0,.51,1.1.84,1.97.84,3.05,0,3.05-2.29,5.42-4.82,4.5-.08-.03-.15-.07-.23-.11.22.27.47.5.76.69,0,0,.02.01.03.02.13.09.26.16.4.23.02.01.04.03.07.04.16.07.32.14.5.19,2.52.73,4.82-1.15,4.82-3.56,0-.17-.02-.34-.04-.5,0-.04-.01-.07-.02-.11Z"/>
      <path class="cls-3" d="M13.61,59.21c-.03-.16-.07-.31-.12-.46,0-.03-.02-.05-.03-.08-.05-.13-.1-.26-.16-.4-.02-.04-.04-.08-.06-.12-.07-.14-.15-.29-.23-.43-.05-.09-.1-.17-.15-.26-.03-.05-.06-.1-.09-.14-.4-.68-.91-1.48-1.46-2.55,0,0,0,0,0,0,.51,1.1.84,1.97.84,3.05,0,3.05-2.29,5.42-4.82,4.5-.08-.03-.15-.07-.23-.11.22.27.47.5.76.69,0,0,.02.01.03.02.13.09.26.16.4.23.02.01.04.03.07.04.16.07.32.14.5.19,2.52.73,4.82-1.15,4.82-3.56,0-.17-.02-.34-.04-.5,0-.04-.01-.07-.02-.11Z"/>
    </g>
  </g>
</svg>