<?xml version="1.0" encoding="UTF-8"?>
<svg id="Layer_2" xmlns="http://www.w3.org/2000/svg" viewBox="0 0 66.56 66.56">
  <defs>
    <style>
      .cls-1 {
        fill: #fdc26a;
      }

      .cls-2 {
        fill: #0f2825;
        opacity: .2;
      }

      .cls-3 {
        fill: #ffe6c1;
      }

      .cls-4 {
        fill: #19423f;
        opacity: .11;
      }

      .cls-5 {
        fill: #ebd4b2;
      }

      .cls-6 {
        fill: #00a39b;
      }

      .cls-7 {
        fill: #1e1307;
        opacity: .1;
      }

      .cls-8 {
        fill: #89ccc8;
      }

      .cls-9 {
        fill: #ffb057;
      }
    </style>
  </defs>
  <g id="Injection">
    <g id="Injection-2" data-name="Injection">
      <path class="cls-3" d="M16.37,51.25l-2.5-2.5c-.53-.53-1.4-.53-1.93,0l-6.15,6.15,3.47,3.47,7.11-7.11Z"/>
      <path class="cls-1" d="M16.37,51.25l-7.11,7.11,1.53,1.53.88.88,6.15-6.15c.53-.53.53-1.4,0-1.93l-1.45-1.45Z"/>
      <path class="cls-5" d="M16.37,51.25l-7.11,7.11,1.53,1.53.88.88,6.15-6.15c.53-.53.53-1.4,0-1.93l-1.45-1.45Z"/>
      <path class="cls-9" d="M10.79,59.9l-1.53-1.53-3.47-3.47-1.61-1.61c-.49-.49-1.3-.49-1.79,0l-2.01,2.01c-.49.49-.49,1.3,0,1.79l9.11,9.11-2.49-2.49,3.8-3.8Z"/>
      <path class="cls-9" d="M6.98,63.7l2.49,2.49c.49.49,1.3.49,1.79,0l2.01-2.01c.49-.49.49-1.3,0-1.79l-1.61-1.61-.88-.88-3.8,3.8Z"/>
      <path class="cls-7" d="M6.98,63.7l2.49,2.49c.49.49,1.3.49,1.79,0l2.01-2.01c.49-.49.49-1.3,0-1.79l-1.61-1.61-.88-.88-3.8,3.8Z"/>
      <path class="cls-8" d="M66.53.34s0,.04-.02.06c.17-.22-.13-.52-.35-.35l-17.56,14.02-1.72-1.72c-.25-.25-.65-.27-.89-.03l-1.05,1.05,4.27,4.27L66.53.34Z"/>
      <path class="cls-8" d="M52.49,17.96L66.51.4s0-.04.02-.06l-17.31,17.31,3.97,3.97,1.05-1.05c.12-.12.17-.28.17-.44,0-.08-.02-.16-.05-.24-.03-.08-.08-.15-.14-.21l-1.72-1.72Z"/>
      <path class="cls-2" d="M52.49,17.96L66.51.4s0-.04.02-.06l-17.31,17.31,3.97,3.97,1.05-1.05c.12-.12.17-.28.17-.44,0-.08-.02-.16-.05-.24-.03-.08-.08-.15-.14-.21l-1.72-1.72Z"/>
      <path class="cls-6" d="M44.96,13.37l-.24-.24c-.2-.2-.53-.2-.73,0l-1.1,1.1c-.2.2-.2.53,0,.73l8.71,8.71-2.89-2.89,1.83-1.83,2.89,2.89-.24-.24-3.97-3.97-4.27-4.27Z"/>
      <path class="cls-9" d="M18.28,50.62l28.85-28.85-5.43-5.43c-.91-.91-2.36-.97-3.2-.12l-2.85,2.85,4.1,4.1c.54.54.57,1.4.07,1.9s-1.36.47-1.9-.07l-4.1-4.1-3.08,3.08,3.01,3.01c.35.35.37.9.05,1.22h0c-.32.32-.87.3-1.22-.05l-3.01-3.01-3.08,3.08,4.1,4.1c.54.54.57,1.4.07,1.9s-1.36.47-1.9-.07l-4.1-4.1-3.08,3.08,3.01,3.01c.35.35.37.9.05,1.22s-.87.3-1.22-.05l-3.01-3.01-3.08,3.08,4.1,4.1c.54.54.57,1.4.07,1.9h0c-.5.5-1.36.47-1.9-.07l-4.1-4.1-2.78,2.78c-.85.85-.8,2.29.12,3.2l6.71,6.71h0l-1.28-1.28Z"/>
      <path class="cls-6" d="M48.71,20.79l2.89,2.89c.2.2.53.2.73,0l1.1-1.1c.2-.2.2-.53,0-.73l-2.89-2.89-1.83,1.83Z"/>
      <path class="cls-4" d="M48.71,20.79l2.89,2.89c.2.2.53.2.73,0l1.1-1.1c.2-.2.2-.53,0-.73l-2.89-2.89-1.83,1.83Z"/>
      <path class="cls-9" d="M50.23,24.86l-1.81-1.81-1.28-1.28-28.85,28.85,1.28,1.28,1.81,1.81c.91.91,2.36.97,3.2.12l25.77-25.77c.85-.85.79-2.29-.12-3.2Z"/>
      <path class="cls-7" d="M50.23,24.86l-1.81-1.81-1.28-1.28-28.85,28.85,1.28,1.28,1.81,1.81c.91.91,2.36.97,3.2.12l25.77-25.77c.85-.85.79-2.29-.12-3.2Z"/>
    </g>
  </g>
</svg>