<?xml version="1.0" encoding="UTF-8"?>
<svg id="Layer_2" xmlns="http://www.w3.org/2000/svg" viewBox="0 0 77.19 65.19">
  <defs>
    <style>
      .cls-1 {
        fill: #fdc26a;
      }

      .cls-2 {
        fill: #19423f;
        opacity: .11;
      }

      .cls-3 {
        fill: #00a39b;
      }

      .cls-4 {
        opacity: .17;
      }

      .cls-4, .cls-5, .cls-6 {
        fill: #3f3318;
      }

      .cls-5 {
        opacity: .15;
      }

      .cls-6 {
        opacity: .16;
      }

      .cls-7 {
        fill: #89ccc8;
      }

      .cls-8 {
        fill: #ffb057;
      }
    </style>
  </defs>
  <g id="Liquid">
    <g id="Liquid-2" data-name="Liquid">
      <path class="cls-7" d="M55.23,55.89c-.41-.15-.99-.37-1.47-.57-1.08-.46-2.08-.74-3.86-.85-1.74-.11-2.54-.8-3.32-1.29-.98-.61-2.02-2.24-2.89-4.77-.2-.57-.32-1.06-.42-1.5l-.43.43c-.11.11-.25.19-.39.26.25.41.55,1.04.89,2.07.81,2.49.48,5.23.32,5.8-.11.39-.51,1.09-.75,1.48-.08.13.02.3.17.3h11.45c.17,0,.33-.07.43-.19l.52-1.07-.04.08c-.05-.08-.13-.14-.23-.18Z"/>
      <path class="cls-7" d="M43.69,48.4c.88,2.53,1.91,4.16,2.89,4.77.79.49,1.58,1.18,3.32,1.29,1.78.12,2.79.4,3.86.85.47.2,1.06.42,1.47.57.1.04.18.1.23.18l.04-.08c.11-.23,0-.5-.22-.6-.35-.15-.86-.37-1.27-.57-.93-.46-1.8-.74-3.34-.85-1.51-.11-2.2-.8-2.88-1.29-.85-.61-1.75-2.24-2.5-4.77-.32-1.07-.44-1.88-.51-2.5l-1.5,1.5c.09.44.22.92.42,1.5Z"/>
      <path class="cls-2" d="M43.69,48.4c.88,2.53,1.91,4.16,2.89,4.77.79.49,1.58,1.18,3.32,1.29,1.78.12,2.79.4,3.86.85.47.2,1.06.42,1.47.57.1.04.18.1.23.18l.04-.08c.11-.23,0-.5-.22-.6-.35-.15-.86-.37-1.27-.57-.93-.46-1.8-.74-3.34-.85-1.51-.11-2.2-.8-2.88-1.29-.85-.61-1.75-2.24-2.5-4.77-.32-1.07-.44-1.88-.51-2.5l-1.5,1.5c.09.44.22.92.42,1.5Z"/>
      <path class="cls-3" d="M42.45,47.59c.14-.07.27-.14.39-.26l.43-.43,1.5-1.5-1.84,1.84-1.94-5.07-2.07,2.07c-.32.32-.32.84,0,1.17l1.93,1.93c.43.43,1.08.51,1.61.26Z"/>
      <path class="cls-8" d="M29.08,31.74c-1.12-.06-2.23-.5-3.09-1.36l-12.47-12.47c-1.85-1.85-1.85-4.86,0-6.7l5.64-5.64L17.12.17c-.54.16-1.05.44-1.48.87L1.06,15.62c-1.41,1.41-1.41,3.71,0,5.12l19.63,19.63c2.7,2.7,6.68,3.36,10.02,2,.75-.31,1.55-.37,2.31-.23l-3.94-10.41h0Z"/>
      <path class="cls-1" d="M15,12.69c-1.03,1.03-1.03,2.7,0,3.73l12.47,12.47c.21.21.45.37.71.49L19.98,7.72l-4.97,4.97Z"/>
      <path class="cls-1" d="M48.69,63.94c4.4,0,8.05-2.35,8.76-5.43.06-.24,0-.47-.12-.66l.1-.13c.18-.23.47-.37.77-.37h17.16c.24,0,.43-.18.43-.4v-1.1h-16.91c-.29,0-.57.12-.75.34l-2.03,2.4s-.02.05-.04.08h-13.94c-.52,0-.94.54-.81,1.1.26,1.12.91,2.14,1.84,2.99-.21-.19-.41-.4-.6-.61,1.59,1.11,3.74,1.8,6.11,1.8Z"/>
      <path class="cls-8" d="M22.22,2.5l-1.46-1.46c-.16-.16-.33-.29-.5-.41-.05-.04-.11-.07-.16-.11-.13-.08-.27-.15-.4-.21-.06-.03-.12-.06-.18-.08-.17-.06-.34-.11-.51-.15-.12-.03-.24-.04-.36-.06-.06,0-.12-.01-.18-.02-.23-.02-.47,0-.7.02-.16.02-.31.06-.47.1-.06.02-.13.02-.19.04h0s2.04,5.39,2.04,5.39l3.06-3.06Z"/>
      <path class="cls-5" d="M22.22,2.5l-1.46-1.46c-.16-.16-.33-.29-.5-.41-.05-.04-.11-.07-.16-.11-.13-.08-.27-.15-.4-.21-.06-.03-.12-.06-.18-.08-.17-.06-.34-.11-.51-.15-.12-.03-.24-.04-.36-.06-.06,0-.12-.01-.18-.02-.23-.02-.47,0-.7.02-.16.02-.31.06-.47.1-.06.02-.13.02-.19.04h0s2.04,5.39,2.04,5.39l3.06-3.06Z"/>
      <path class="cls-8" d="M43.8,37.88c.11-.16.19-.34.24-.52.11-.36.11-.75,0-1.12-.05-.18-.13-.36-.24-.52-.07-.11-.16-.21-.25-.31l-.25-.25h0c-1.17-1.17-1.53-2.94-.9-4.47.15-.36.27-.74.37-1.11.14-.52.23-1.05.27-1.59.04-.53.04-1.07,0-1.61-.02-.27-.06-.53-.11-.8-.14-.79-.39-1.57-.74-2.32-.25-.52-.52-1.03-.87-1.51l-4.31,4.31-4.31,4.31s0,0,0,0c-.24.24-.5.45-.78.63-.05.03-.1.05-.15.08-.24.14-.49.27-.75.37-.03,0-.05.01-.08.02-.6.21-1.23.3-1.86.27h0l3.94,10.41c.4.07.78.2,1.14.39,0,0,.01,0,.02,0,.16.08.31.18.46.29.02.01.04.03.06.04.17.12.33.26.48.41l.25.25c.57.57,1.42.72,2.13.43.24-.1.46-.24.65-.43l5.34-5.34c.1-.1.18-.2.25-.31Z"/>
      <path class="cls-4" d="M43.8,37.88c.11-.16.19-.34.24-.52.11-.36.11-.75,0-1.12-.05-.18-.13-.36-.24-.52-.07-.11-.16-.21-.25-.31l-.25-.25h0c-1.17-1.17-1.53-2.94-.9-4.47.15-.36.27-.74.37-1.11.14-.52.23-1.05.27-1.59.04-.53.04-1.07,0-1.61-.02-.27-.06-.53-.11-.8-.14-.79-.39-1.57-.74-2.32-.25-.52-.52-1.03-.87-1.51l-4.31,4.31-4.31,4.31s0,0,0,0c-.24.24-.5.45-.78.63-.05.03-.1.05-.15.08-.24.14-.49.27-.75.37-.03,0-.05.01-.08.02-.6.21-1.23.3-1.86.27h0l3.94,10.41c.4.07.78.2,1.14.39,0,0,.01,0,.02,0,.16.08.31.18.46.29.02.01.04.03.06.04.17.12.33.26.48.41l.25.25c.57.57,1.42.72,2.13.43.24-.1.46-.24.65-.43l5.34-5.34c.1-.1.18-.2.25-.31Z"/>
      <path class="cls-1" d="M19.98,7.72l8.2,21.67s0,0,0,0c.12.06.24.11.37.15,0,0,.01,0,.02,0,.35.11.72.14,1.09.09.04,0,.07,0,.11-.01.08-.01.16-.03.24-.05.08-.02.15-.04.23-.07.06-.02.13-.05.19-.08.09-.04.18-.09.27-.14.05-.03.1-.05.14-.09.13-.09.26-.19.37-.3,0,0,0,0,0,0l8.71-8.71L23.71,3.98l-3.73,3.73Z"/>
      <path class="cls-4" d="M19.98,7.72l8.2,21.67s0,0,0,0c.12.06.24.11.37.15,0,0,.01,0,.02,0,.35.11.72.14,1.09.09.04,0,.07,0,.11-.01.08-.01.16-.03.24-.05.08-.02.15-.04.23-.07.06-.02.13-.05.19-.08.09-.04.18-.09.27-.14.05-.03.1-.05.14-.09.13-.09.26-.19.37-.3,0,0,0,0,0,0l8.71-8.71L23.71,3.98l-3.73,3.73Z"/>
      <path class="cls-6" d="M58.68,60.33c.07-.19.12-.38.17-.57.03-.12.03-.24,0-.35.02.11.02.23,0,.35-.04.19-.1.38-.17.57Z"/>
      <path class="cls-1" d="M76.76,55.86h-.96v1.1c0,.22-.19.4-.43.4h-17.16c-.31,0-.59.14-.77.37l-.1.13c.11.19.17.42.12.66-.71,3.08-4.36,5.43-8.76,5.43-2.37,0-4.52-.69-6.11-1.8.18.21.38.41.6.61.04.03.07.07.11.1.21.19.44.37.68.54,0,0,.01,0,.02.01.52.36,1.1.68,1.73.94.03.01.05.02.08.03.27.11.56.21.85.3.05.02.1.03.16.05.32.09.64.18.98.24.04,0,.08.01.12.02.29.05.59.1.89.13.09,0,.18.02.27.03.34.03.69.05,1.04.05,2.2,0,4.21-.59,5.76-1.56.39-.24.75-.51,1.07-.8s.62-.6.87-.92.47-.67.65-1.03c.09-.18.17-.36.23-.55.07-.19.12-.38.17-.57.03-.12.03-.24,0-.35-.02-.11-.07-.22-.12-.31l.1-.13c.18-.23.47-.37.77-.37h17.16c.24,0,.43-.18.43-.4v-1.94c0-.22-.19-.4-.43-.4Z"/>
      <path class="cls-6" d="M76.76,55.86h-.96v1.1c0,.22-.19.4-.43.4h-17.16c-.31,0-.59.14-.77.37l-.1.13c.11.19.17.42.12.66-.71,3.08-4.36,5.43-8.76,5.43-2.37,0-4.52-.69-6.11-1.8.18.21.38.41.6.61.04.03.07.07.11.1.21.19.44.37.68.54,0,0,.01,0,.02.01.52.36,1.1.68,1.73.94.03.01.05.02.08.03.27.11.56.21.85.3.05.02.1.03.16.05.32.09.64.18.98.24.04,0,.08.01.12.02.29.05.59.1.89.13.09,0,.18.02.27.03.34.03.69.05,1.04.05,2.2,0,4.21-.59,5.76-1.56.39-.24.75-.51,1.07-.8s.62-.6.87-.92.47-.67.65-1.03c.09-.18.17-.36.23-.55.07-.19.12-.38.17-.57.03-.12.03-.24,0-.35-.02-.11-.07-.22-.12-.31l.1-.13c.18-.23.47-.37.77-.37h17.16c.24,0,.43-.18.43-.4v-1.94c0-.22-.19-.4-.43-.4Z"/>
      <path class="cls-3" d="M44.77,45.41l2.56-2.56c.56-.56.56-1.49,0-2.05l-1.88-1.88c-.33-.33-.87-.33-1.2,0l-3.26,3.26,1.94,5.07,1.84-1.84Z"/>
      <path class="cls-2" d="M44.77,45.41l2.56-2.56c.56-.56.56-1.49,0-2.05l-1.88-1.88c-.33-.33-.87-.33-1.2,0l-3.26,3.26,1.94,5.07,1.84-1.84Z"/>
    </g>
  </g>
</svg>