<svg width="72" height="72" viewBox="0 0 72 72" fill="none" xmlns="http://www.w3.org/2000/svg">
<rect width="72" height="72" rx="36" fill="#89CCC8"/>
<path d="M36 21C36.4973 21 36.9742 21.1975 37.3258 21.5492C37.6775 21.9008 37.875 22.3777 37.875 22.875V34.125H49.125C49.6223 34.125 50.0992 34.3225 50.4508 34.6742C50.8025 35.0258 51 35.5027 51 36C51 36.4973 50.8025 36.9742 50.4508 37.3258C50.0992 37.6775 49.6223 37.875 49.125 37.875H37.875V49.125C37.875 49.6223 37.6775 50.0992 37.3258 50.4508C36.9742 50.8025 36.4973 51 36 51C35.5027 51 35.0258 50.8025 34.6742 50.4508C34.3225 50.0992 34.125 49.6223 34.125 49.125V37.875H22.875C22.3777 37.875 21.9008 37.6775 21.5492 37.3258C21.1975 36.9742 21 36.4973 21 36C21 35.5027 21.1975 35.0258 21.5492 34.6742C21.9008 34.3225 22.3777 34.125 22.875 34.125H34.125V22.875C34.125 22.3777 34.3225 21.9008 34.6742 21.5492C35.0258 21.1975 35.5027 21 36 21Z" fill="#0D352A"/>
</svg>