<?xml version="1.0" encoding="UTF-8"?>
<svg id="Layer_2" xmlns="http://www.w3.org/2000/svg" viewBox="0 0 73.15 67.15">
  <defs>
    <style>
      .cls-1 {
        fill: #fdc26a;
      }

      .cls-2 {
        fill: #19423f;
        opacity: .11;
      }

      .cls-3 {
        fill: #00a39b;
      }

      .cls-4 {
        fill: #3f3318;
        opacity: .17;
      }

      .cls-5 {
        fill: #89ccc8;
      }

      .cls-6 {
        fill: #ffb057;
      }
    </style>
  </defs>
  <g id="Ointment__x2F__Cream">
    <g id="Ointment__x2F__Cream-2" data-name="Ointment__x2F__Cream">
      <path class="cls-6" d="M24.57,30.19l-3.55,4.14c-3.04,3.54-3.26,8.44-.65,11.05l6.91,6.91,9.69-9.69-12.4-12.4Z"/>
      <path class="cls-6" d="M65.43,14.14L51.6.31c-.58-.58-1.75-.33-2.49.55l-10.08,11.79,21.47,21.47-7.52-7.52,12.46-12.46Z"/>
      <polygon class="cls-1" points="38.76 40.81 51.25 28.32 37.54 14.61 26.12 28.17 44.98 47.02 58.54 35.61 44.98 47.02 38.76 40.81"/>
      <path class="cls-5" d="M20.81,53.65l-2.95-2.95-1.98,1.98c-.5.5-.5,1.31,0,1.81l2.05,2.05,2.89-2.89Z"/>
      <path class="cls-3" d="M23.35,51.12l-4.43-4.43-1.22,1.22c-.73.73-.73,1.9,0,2.63l.16.16,2.96,2.96,2.53-2.53Z"/>
      <path class="cls-5" d="M16.02,62.99c-1.05-1.64-1.1-2.97-1.17-4.13-.17-.04-.34-.02-.48.11-.54.52-1.64,1.38-3.48,1.96-2.78.88-6.38.14-8.7,2.39-1.57,1.52-2.06,2.56-2.19,3.18-.08.36.21.69.58.65,1.62-.2,6.44-.75,9.59-.67,1.81.05,4.1.12,6.15.37.03-.07.07-.14.09-.21.42-1.27.69-1.93-.41-3.63Z"/>
      <path class="cls-6" d="M27.29,52.28l.49.49c1.14,1.14,2.72,1.74,4.43,1.8,0,0,0,0,0,0,.46.02.94-.01,1.41-.07.89-.12,1.8-.38,2.68-.77.88-.4,1.73-.93,2.52-1.6l1.91-1.64,2.23-1.91-5.98-5.98-9.69,9.69Z"/>
      <path class="cls-4" d="M27.29,52.28l.49.49c1.14,1.14,2.72,1.74,4.43,1.8,0,0,0,0,0,0,.46.02.94-.01,1.41-.07.89-.12,1.8-.38,2.68-.77.88-.4,1.73-.93,2.52-1.6l1.91-1.64,2.23-1.91-5.98-5.98-9.69,9.69Z"/>
      <polygon class="cls-1" points="38.76 40.81 44.98 47.02 58.54 35.61 51.25 28.32 38.76 40.81"/>
      <polygon class="cls-4" points="38.76 40.81 44.98 47.02 58.54 35.61 51.25 28.32 38.76 40.81"/>
      <path class="cls-6" d="M73.08,21.93c-.05-.14-.13-.27-.24-.38l-7.41-7.41-12.46,12.46,7.52,7.52,11.79-10.08c.44-.37.72-.85.82-1.31.03-.11.04-.23.04-.34,0-.16-.02-.32-.07-.47Z"/>
      <path class="cls-4" d="M73.08,21.93c-.05-.14-.13-.27-.24-.38l-7.41-7.41-12.46,12.46,7.52,7.52,11.79-10.08c.44-.37.72-.85.82-1.31.03-.11.04-.23.04-.34,0-.16-.02-.32-.07-.47Z"/>
      <path class="cls-5" d="M17.93,56.54l.73.73c.5.5,1.31.5,1.81,0l1.04-1.04.95-.95-1.64-1.64-2.89,2.89Z"/>
      <path class="cls-2" d="M17.93,56.54l.73.73c.5.5,1.31.5,1.81,0l1.04-1.04.95-.95-1.64-1.64-2.89,2.89Z"/>
      <path class="cls-3" d="M20.82,53.65l1.64,1.64h0l.16.16c.36.36.84.54,1.31.54.24,0,.48-.05.7-.14.22-.09.43-.23.61-.41l1.22-1.22-3.11-3.11-2.53,2.53Z"/>
      <path class="cls-2" d="M20.82,53.65l1.64,1.64h0l.16.16c.36.36.84.54,1.31.54.24,0,.48-.05.7-.14.22-.09.43-.23.61-.41l1.22-1.22-3.11-3.11-2.53,2.53Z"/>
      <path class="cls-5" d="M15.16,59.06c-.04-.05-.09-.09-.15-.13-.05-.03-.11-.05-.16-.07,0,0,0,0,0,0,.06,1.16.11,2.49,1.17,4.13,1.1,1.7.82,2.36.41,3.63-.02.08-.06.15-.09.21.3.04.59.08.88.12.73.11,1.4-.4,1.52-1.13.2-1.19-.04-2.25-.87-3.47-.84-1.23-1.68-1.94-2.7-3.3Z"/>
      <path class="cls-2" d="M15.16,59.06c-.04-.05-.09-.09-.15-.13-.05-.03-.11-.05-.16-.07,0,0,0,0,0,0,.06,1.16.11,2.49,1.17,4.13,1.1,1.7.82,2.36.41,3.63-.02.08-.06.15-.09.21.3.04.59.08.88.12.73.11,1.4-.4,1.52-1.13.2-1.19-.04-2.25-.87-3.47-.84-1.23-1.68-1.94-2.7-3.3Z"/>
    </g>
  </g>
</svg>