<?xml version="1.0" encoding="UTF-8"?>
<svg id="Layer_2" xmlns="http://www.w3.org/2000/svg" viewBox="0 0 35.44 67.86">
  <defs>
    <style>
      .cls-1 {
        fill: #fdc26a;
      }

      .cls-2 {
        fill: #00a39b;
      }

      .cls-3 {
        fill: #3f3318;
        opacity: .11;
      }

      .cls-4 {
        fill: #89ccc8;
      }

      .cls-5 {
        fill: #ffb057;
      }
    </style>
  </defs>
  <g id="Spray">
    <g id="Spray-2" data-name="Spray">
      <path class="cls-4" d="M12.19,9.05V2.86h-2.73c-.73,0-1.32.59-1.32,1.32v4.93c.11-.03.21-.07.33-.07h3.72Z"/>
      <path class="cls-4" d="M13.18,9.05h1.93c.12,0,.22.04.33.07v-4.93c0-.73-.59-1.32-1.32-1.32h-1.93v6.19h.99Z"/>
      <path class="cls-3" d="M13.18,9.05h1.93c.12,0,.22.04.33.07v-4.93c0-.73-.59-1.32-1.32-1.32h-1.93v6.19h.99Z"/>
      <path class="cls-2" d="M7.63,12.96h5.55v-3.92h-4.71c-.12,0-.22.04-.33.07-.54.15-.96.63-.96,1.22v2.18c0,.25.2.45.45.45Z"/>
      <path class="cls-2" d="M13.18,9.05v3.92h2.77c.25,0,.45-.2.45-.45v-2.18c0-.59-.41-1.07-.96-1.22-.11-.03-.21-.07-.33-.07h-1.93Z"/>
      <path class="cls-3" d="M13.18,9.05v3.92h2.77c.25,0,.45-.2.45-.45v-2.18c0-.59-.41-1.07-.96-1.22-.11-.03-.21-.07-.33-.07h-1.93Z"/>
      <path class="cls-2" d="M26.46,5.62h-6.68c-.63,0-1.15.52-1.15,1.15s.52,1.15,1.15,1.15h6.68c.63,0,1.15-.52,1.15-1.15s-.52-1.15-1.15-1.15Z"/>
      <path class="cls-2" d="M19.54,4.78l4.46-1c.71-.16,1.14-.79.96-1.4-.19-.61-.93-.98-1.64-.82l-4.46,1c-.71.16-1.14.79-.96,1.4.19.61.93.98,1.64.82Z"/>
      <path class="cls-4" d="M27.34,2.91l2.91-.65c.71-.16,1.14-.79.96-1.4-.19-.61-.93-.98-1.64-.82l-2.91.65c-.71.16-1.14.79-.96,1.4.19.61.93.98,1.64.82Z"/>
      <path class="cls-2" d="M24,9.75l-4.46-1c-.71-.16-1.45.21-1.64.82s.24,1.24.96,1.4l4.46,1c.71.16,1.45-.21,1.64-.82.19-.61-.24-1.24-.96-1.4Z"/>
      <path class="cls-4" d="M30.25,11.27l-2.91-.65c-.71-.16-1.45.21-1.64.82-.19.61.24,1.24.96,1.4l2.91.65c.71.16,1.45-.21,1.64-.82.19-.61-.24-1.24-.96-1.4Z"/>
      <path class="cls-4" d="M34.3,5.62h-4.7c-.63,0-1.15.52-1.15,1.15s.52,1.15,1.15,1.15h4.7c.63,0,1.15-.52,1.15-1.15s-.52-1.15-1.15-1.15Z"/>
      <path class="cls-5" d="M12.86,20.31h-.07c-.88,0-1.6-1.02-1.6-2.29v-1.25c0-.89-.51-1.63-1.13-1.63h-3.33c-.83,0-1.51.68-1.51,1.52v1.25c0,1.32-1.06,2.39-2.37,2.39-2.85,0-2.85,2.3-2.85,6.53v3.95h14.87v-5.27c0-1.58.28-4.26-2.01-5.21Z"/>
      <rect class="cls-1" y="33.79" width="14.87" height="16.26"/>
      <path class="cls-5" d="M14.87,64.98v-11.93H0v11.93c0,1.58,1.28,2.88,2.85,2.88h10.01c1.11,0,2.01-1.3,2.01-2.88Z"/>
      <path class="cls-5" d="M23.08,21.59c-.21-.31-.47-.57-.77-.78-.23-.16-.48-.28-.75-.36-.27-.08-.55-.13-.85-.13h-.1c-.16,0-.31-.02-.46-.05-1.03-.21-1.81-1.14-1.81-2.24v-1.25c0-.34-.1-.65-.28-.91-.29-.43-.78-.72-1.33-.72h-6.68c.62,0,1.13.73,1.13,1.63v1.25c0,1.26.71,2.29,1.6,2.29h.07c2.29.95,2.01,3.63,2.01,5.21v5.27h8.7v-7.6c0-.2-.02-.39-.06-.58-.08-.37-.23-.72-.43-1.03Z"/>
      <path class="cls-3" d="M23.08,21.59c-.21-.31-.47-.57-.77-.78-.23-.16-.48-.28-.75-.36-.27-.08-.55-.13-.85-.13h-.1c-.16,0-.31-.02-.46-.05-1.03-.21-1.81-1.14-1.81-2.24v-1.25c0-.34-.1-.65-.28-.91-.29-.43-.78-.72-1.33-.72h-6.68c.62,0,1.13.73,1.13,1.63v1.25c0,1.26.71,2.29,1.6,2.29h.07c2.29.95,2.01,3.63,2.01,5.21v5.27h8.7v-7.6c0-.2-.02-.39-.06-.58-.08-.37-.23-.72-.43-1.03Z"/>
      <rect class="cls-1" x="14.87" y="33.79" width="8.7" height="16.26"/>
      <rect class="cls-3" x="14.87" y="33.79" width="8.7" height="16.26"/>
      <path class="cls-5" d="M14.87,64.98c0,1.58-.9,2.88-2.01,2.88h7.85c.29,0,.58-.05.85-.13s.52-.21.75-.36c.3-.21.57-.47.77-.78.31-.46.49-1.01.49-1.61v-11.93h-8.7v11.93Z"/>
      <path class="cls-3" d="M14.87,64.98c0,1.58-.9,2.88-2.01,2.88h7.85c.29,0,.58-.05.85-.13s.52-.21.75-.36c.3-.21.57-.47.77-.78.31-.46.49-1.01.49-1.61v-11.93h-8.7v11.93Z"/>
    </g>
  </g>
</svg>