<?xml version="1.0" encoding="UTF-8"?>
<svg id="Layer_2" xmlns="http://www.w3.org/2000/svg" viewBox="0 0 70.1 40.81">
  <defs>
    <style>
      .cls-1 {
        fill: #fdc26a;
      }

      .cls-2 {
        fill: #00a39b;
      }

      .cls-3 {
        fill: #3f3318;
        opacity: .17;
      }

      .cls-4 {
        fill: #89ccc8;
      }

      .cls-5 {
        fill: #ffb057;
      }
    </style>
  </defs>
  <g id="Tablet">
    <g id="Tablets">
      <path class="cls-2" d="M23.17,26.97C10.5,26.97.21,21.91,0,15.63c0,.06,0,.12,0,.19,0,8.13,7.54,15.66,23.17,15.66,2.26,0,4.32-.11,6.22-.32-.71-1.39-1.28-2.86-1.72-4.41-1.45.14-2.96.22-4.49.22Z"/>
      <path class="cls-4" d="M23.17,26.97c1.54,0,3.04-.08,4.49-.22,0,0,0,0,0,0-.07-.26-.16-.51-.23-.78-.02-.09-.04-.19-.06-.28-1.16-1.69-1.95-3.56-2.43-5.6v3.67c0,.4-.32.72-.72.72h-.06c-.4,0-.72-.32-.72-.72v-7.03H6.26c-.4,0-.72-.32-.72-.72s.32-.72.72-.72h17.19V7.13c0-.4.32-.72.72-.72h.06c.4,0,.72.32.72.72v1.93c.55-1.66,1.44-3.3,2.82-4.91-1.49-.15-3.03-.23-4.61-.23C10.37,3.92,0,9.08,0,15.45c0,.06,0,.12,0,.18.2,6.28,10.49,11.35,23.16,11.35Z"/>
      <path class="cls-4" d="M27.02,16.73h-2.06v3.37c.48,2.04,1.26,3.91,2.43,5.6-.7-2.99-.81-6.03-.37-8.97Z"/>
      <path class="cls-3" d="M27.02,16.73h-2.06v3.37c.48,2.04,1.26,3.91,2.43,5.6-.7-2.99-.81-6.03-.37-8.97Z"/>
      <path class="cls-4" d="M24.96,9.06v6.21h2.34c.51-2.35,1.37-4.63,2.6-6.76.38-.65.78-1.27,1.22-1.88.41-.57.85-1.12,1.31-1.64.03-.03.05-.07.08-.1-1.46-.32-3-.57-4.6-.74-.04,0-.08,0-.13-.01-1.37,1.61-2.26,3.25-2.82,4.91Z"/>
      <path class="cls-3" d="M24.96,9.06v6.21h2.34c.51-2.35,1.37-4.63,2.6-6.76.38-.65.78-1.27,1.22-1.88.41-.57.85-1.12,1.31-1.64.03-.03.05-.07.08-.1-1.46-.32-3-.57-4.6-.74-.04,0-.08,0-.13-.01-1.37,1.61-2.26,3.25-2.82,4.91Z"/>
      <path class="cls-5" d="M36.39,30.59c-.36-.52-.71-1.06-1.04-1.62-5.59-9.68-3-21.64,5.79-26.71.5-.29,1-.54,1.52-.77-8.84,3.12-14.19,12.38-12.69,21.98-.01-.09-.03-.17-.04-.26,1.56,3.01,3.81,5.53,6.47,7.38Z"/>
      <path class="cls-1" d="M35.36,28.97c.32.56.67,1.1,1.04,1.62,4.43,3.08,10.01,4.32,15.55,2.96.95-.23,1.85-.54,2.72-.91l.3,1.3-2.82-12.22-13.23,2.63c-.53.11-1.05-.24-1.16-.77-.11-.53.24-1.05.77-1.16l13.17-2.62-2.95-12.79c-.12-.53.21-1.06.74-1.18h0c.53-.12,1.06.21,1.18.74l2.97,12.85,12.42-2.47c.53-.11,1.05.24,1.16.77.11.53-.24,1.05-.77,1.16l-12.36,2.46,2.42,10.5c.93-.33,1.84-.72,2.71-1.23,6.52-3.77,9.62-11.33,8.5-18.94-.18-.35-.35-.71-.55-1.06C61.9,1.47,51.23-2.37,42.66,1.49c-.51.23-1.02.48-1.52.77-8.79,5.07-11.38,17.03-5.79,26.71Z"/>
      <path class="cls-5" d="M36.39,30.59c-2.66-1.85-4.91-4.37-6.47-7.38.01.09.03.17.04.26.09.6.2,1.2.35,1.8,0,0,0,0,0,0,.5,2.04,1.28,3.93,2.29,5.64,1.34,2.28,3.09,4.24,5.11,5.8,1.52,1.17,3.19,2.12,4.96,2.8,1.18.46,2.41.8,3.67,1.02,2.51.44,5.14.37,7.76-.27,0,0,0,0,0,0,.56-.14,1.09-.31,1.63-.49.15-.05.3-.1.45-.16.41-.15.81-.33,1.2-.51.26-.12.53-.24.79-.38-7.7,2.51-16.62-.74-21.79-8.14Z"/>
      <path class="cls-3" d="M36.39,30.59c-2.66-1.85-4.91-4.37-6.47-7.38.01.09.03.17.04.26.09.6.2,1.2.35,1.8,0,0,0,0,0,0,.5,2.04,1.28,3.93,2.29,5.64,1.34,2.28,3.09,4.24,5.11,5.8,1.52,1.17,3.19,2.12,4.96,2.8,1.18.46,2.41.8,3.67,1.02,2.51.44,5.14.37,7.76-.27,0,0,0,0,0,0,.56-.14,1.09-.31,1.63-.49.15-.05.3-.1.45-.16.41-.15.81-.33,1.2-.51.26-.12.53-.24.79-.38-7.7,2.51-16.62-.74-21.79-8.14Z"/>
      <path class="cls-1" d="M65.58,33.88c.2-.23.39-.48.58-.72.18-.22.36-.44.52-.67.2-.28.37-.57.56-.86.13-.21.27-.41.39-.63.19-.33.35-.66.52-1,.09-.19.19-.38.28-.57.17-.37.31-.76.46-1.14.06-.17.13-.33.19-.49.14-.42.26-.85.38-1.29.04-.14.08-.27.11-.41.11-.47.2-.94.28-1.42.02-.11.04-.21.05-.32.07-.51.13-1.03.16-1.55,0-.08.01-.15.02-.23.03-.55.04-1.1.02-1.66,0-.05,0-.1,0-.15-.02-.58-.06-1.16-.13-1.74,0-.03,0-.06,0-.08-.07-.6-.17-1.2-.3-1.8,0-.01,0-.02,0-.03-.39-1.85-1.03-3.68-1.93-5.45,0,0,0,0,0,0,1.12,7.61-1.98,15.18-8.5,18.94-.88.51-1.79.9-2.71,1.23l.38,1.66c.12.53-.21,1.06-.74,1.18h0c-.53.12-1.06-.21-1.18-.74l-.3-1.3c-.87.37-1.78.68-2.72.91-5.54,1.36-11.13.12-15.55-2.96,5.16,7.4,14.09,10.65,21.79,8.14,0,0,0,0,0,0,.55-.18,1.09-.38,1.62-.62.51-.23,1.01-.48,1.51-.76.02-.01.05-.02.07-.04,0,0,0,0,0,0,.54-.31,1.05-.65,1.54-1.01.18-.13.33-.28.5-.41.3-.24.61-.48.9-.74.2-.18.38-.39.57-.58.23-.23.46-.45.68-.7Z"/>
      <path class="cls-3" d="M65.58,33.88c.2-.23.39-.48.58-.72.18-.22.36-.44.52-.67.2-.28.37-.57.56-.86.13-.21.27-.41.39-.63.19-.33.35-.66.52-1,.09-.19.19-.38.28-.57.17-.37.31-.76.46-1.14.06-.17.13-.33.19-.49.14-.42.26-.85.38-1.29.04-.14.08-.27.11-.41.11-.47.2-.94.28-1.42.02-.11.04-.21.05-.32.07-.51.13-1.03.16-1.55,0-.08.01-.15.02-.23.03-.55.04-1.1.02-1.66,0-.05,0-.1,0-.15-.02-.58-.06-1.16-.13-1.74,0-.03,0-.06,0-.08-.07-.6-.17-1.2-.3-1.8,0-.01,0-.02,0-.03-.39-1.85-1.03-3.68-1.93-5.45,0,0,0,0,0,0,1.12,7.61-1.98,15.18-8.5,18.94-.88.51-1.79.9-2.71,1.23l.38,1.66c.12.53-.21,1.06-.74,1.18h0c-.53.12-1.06-.21-1.18-.74l-.3-1.3c-.87.37-1.78.68-2.72.91-5.54,1.36-11.13.12-15.55-2.96,5.16,7.4,14.09,10.65,21.79,8.14,0,0,0,0,0,0,.55-.18,1.09-.38,1.62-.62.51-.23,1.01-.48,1.51-.76.02-.01.05-.02.07-.04,0,0,0,0,0,0,.54-.31,1.05-.65,1.54-1.01.18-.13.33-.28.5-.41.3-.24.61-.48.9-.74.2-.18.38-.39.57-.58.23-.23.46-.45.68-.7Z"/>
    </g>
  </g>
</svg>