<svg width="35" height="41" viewBox="0 0 35 41" fill="none" xmlns="http://www.w3.org/2000/svg">
<path d="M2.03125 40.1875C1.65829 40.1875 1.3006 40.0393 1.03688 39.7756C0.773158 39.5119 0.625 39.1542 0.625 38.7812C0.625 38.4083 0.773158 38.0506 1.03688 37.7869C1.3006 37.5232 1.65829 37.375 2.03125 37.375H4.84375V34.5625C4.84317 32.1746 5.51815 29.8352 6.7907 27.8147C8.06326 25.7941 9.88147 24.1748 12.0353 23.1437C12.8509 22.7528 13.2812 22.0834 13.2812 21.4844V19.5156C13.2812 18.9166 12.8481 18.2472 12.0353 17.8563C9.88147 16.8252 8.06326 15.2059 6.7907 13.1853C5.51815 11.1648 4.84317 8.8254 4.84375 6.4375V3.625H2.03125C1.65829 3.625 1.3006 3.47684 1.03688 3.21312C0.773158 2.9494 0.625 2.59171 0.625 2.21875C0.625 1.84579 0.773158 1.4881 1.03688 1.22438C1.3006 0.960658 1.65829 0.8125 2.03125 0.8125H32.9688C33.3417 0.8125 33.6994 0.960658 33.9631 1.22438C34.2268 1.4881 34.375 1.84579 34.375 2.21875C34.375 2.59171 34.2268 2.9494 33.9631 3.21312C33.6994 3.47684 33.3417 3.625 32.9688 3.625H30.1562V6.4375C30.1568 8.8254 29.4819 11.1648 28.2093 13.1853C26.9367 15.2059 25.1185 16.8252 22.9647 17.8563C22.1491 18.2472 21.7188 18.9166 21.7188 19.5156V21.4844C21.7188 22.0834 22.1519 22.7528 22.9647 23.1437C25.1185 24.1748 26.9367 25.7941 28.2093 27.8147C29.4819 29.8352 30.1568 32.1746 30.1562 34.5625V37.375H32.9688C33.3417 37.375 33.6994 37.5232 33.9631 37.7869C34.2268 38.0506 34.375 38.4083 34.375 38.7812C34.375 39.1542 34.2268 39.5119 33.9631 39.7756C33.6994 40.0393 33.3417 40.1875 32.9688 40.1875H2.03125ZM7.65625 3.625V6.4375C7.65625 7.94781 7.99375 9.37656 8.60406 10.6562H26.3959C27.0034 9.37656 27.3438 7.94781 27.3438 6.4375V3.625H7.65625ZM16.0938 21.4844C16.0938 23.4559 14.7494 24.9606 13.2503 25.6806C11.5749 26.4825 10.1605 27.742 9.17064 29.3137C8.18076 30.8854 7.65574 32.7051 7.65625 34.5625C7.65625 34.5625 10.0919 30.9091 16.0938 30.4V21.4844ZM18.9062 21.4844V30.4C24.9081 30.9091 27.3438 34.5625 27.3438 34.5625C27.3443 32.7051 26.8192 30.8854 25.8294 29.3137C24.8395 27.742 23.4251 26.4825 21.7497 25.6806C20.2506 24.9606 18.9062 23.4559 18.9062 21.4844Z" fill="#00A39B"/>
</svg>
